<svg width="361" height="871" viewBox="0 0 361 871" fill="none" xmlns="http://www.w3.org/2000/svg">
<path d="M342.757 659.673L212.188 696.191C173.934 698.506 87.4583 704.219 87.4583 704.219L115.143 870.325H213.094H322.925C322.925 870.325 356.851 819.99 360.349 757.75C362.321 724.127 356.292 690.515 342.757 659.673Z" fill="#263238"/>
<path d="M198.371 725.561C197.956 725.938 197.5 726.267 197.012 726.543L192.986 729.06C189.512 731.325 184.403 734.521 178.489 738.975C171.462 744.031 165.286 750.173 160.192 757.172C157.276 761.337 155.026 765.93 153.523 770.787C151.978 776.049 150.975 781.454 150.528 786.92C148.791 809.445 147.206 829.855 146.048 844.805C145.419 852.078 144.916 858.043 144.563 862.422C144.362 864.385 144.211 865.971 144.085 867.179C144.058 867.74 143.973 868.296 143.833 868.84C143.767 868.28 143.767 867.714 143.833 867.154C143.833 865.946 143.959 864.36 144.035 862.372C144.312 858.068 144.664 852.103 145.117 844.755C146.124 829.931 147.407 809.52 149.219 786.869C149.686 781.326 150.715 775.845 152.29 770.51C153.843 765.538 156.17 760.841 159.186 756.593C164.403 749.525 170.736 743.354 177.935 738.321C183.976 733.942 189.16 730.771 192.734 728.732C194.521 727.675 195.905 726.87 196.861 726.341C197.336 726.028 197.842 725.767 198.371 725.561Z" fill="#455A64"/>
<path d="M298.135 866.927C298.383 866.331 298.669 865.75 298.991 865.191L301.634 860.333C302.238 859.276 302.867 858.118 303.571 856.86C304.276 855.602 304.93 854.142 305.686 852.632C307.145 849.561 309.008 846.164 310.719 842.187C311.55 840.224 312.43 838.161 313.362 836.021C314.293 833.882 315.048 831.567 315.878 829.226C317.716 824.545 319.251 819.386 320.912 814C327.779 790.414 330.696 765.854 329.544 741.316C329.167 735.679 328.915 730.318 328.185 725.335C327.858 722.818 327.657 720.301 327.254 718.137C326.851 715.972 326.474 713.632 326.096 711.518C325.467 707.29 324.461 703.54 323.731 700.218C323.328 698.582 323.026 697.021 322.649 695.612C322.271 694.203 321.893 692.944 321.566 691.786C320.962 689.572 320.459 687.81 320.107 686.476C319.902 685.863 319.759 685.23 319.679 684.589C319.938 685.171 320.165 685.768 320.358 686.375L322.044 691.635C322.422 692.793 322.825 694.152 323.253 695.436C323.68 696.719 324.008 698.405 324.435 700.041C325.241 703.363 326.323 707.113 326.952 711.342C327.33 713.456 327.757 715.67 328.185 717.961C328.613 720.251 328.84 722.692 329.192 725.209C329.972 730.242 330.249 735.603 330.677 741.266C331.241 753.585 330.837 765.93 329.469 778.186C327.916 790.415 325.391 802.5 321.919 814.327C320.207 819.763 318.647 824.923 316.734 829.604C315.803 831.944 315.048 834.26 314.066 836.399L311.323 842.565C309.662 846.541 307.749 849.914 306.29 852.959C305.509 854.469 304.805 855.904 304.075 857.162L302.036 860.585L299.167 865.316C298.887 865.891 298.54 866.432 298.135 866.927Z" fill="#455A64"/>
<path d="M142.399 760.796C140.747 760.29 139.178 759.544 137.743 758.581C130.558 754.462 123.812 749.622 117.609 744.135C116.243 743.083 115.039 741.837 114.035 740.435C114.287 740.158 120.226 745.217 128.053 750.804C135.881 756.391 142.575 760.544 142.399 760.796Z" fill="#455A64"/>
<path d="M91.5856 477.913C91.5856 477.913 34.7323 531.495 20.5127 567.434C6.29305 603.373 -7.17154 639.136 6.69575 678.171C18.2476 710.31 46.41 750.804 90.6042 760.972C119.345 767.616 349.829 668.934 349.829 668.934C349.829 668.934 352.094 640.017 338.605 617.039C326.751 596.905 327.279 371.908 327.581 317.923C327.595 314.339 326.747 310.803 325.109 307.615C323.471 304.426 321.091 301.678 318.169 299.601L279.637 272.32L200.611 274.333C200.611 274.333 138.699 343.267 127.475 353.737C116.25 364.206 42.9117 422.52 91.5856 477.913Z" fill="#E51284"/>
<path d="M219.059 502.024C219.059 502.024 218.707 502.175 218.002 502.351C217.297 502.527 216.24 502.779 214.856 502.98C210.978 503.587 207.052 503.839 203.128 503.735C190.034 503.448 177.304 499.373 166.478 492.003C155.651 484.633 147.191 474.285 142.122 462.209C140.566 458.6 139.36 454.849 138.523 451.009C138.196 449.65 138.07 448.492 137.944 447.863C137.878 447.489 137.878 447.105 137.944 446.731C137.944 446.731 138.372 448.215 139.102 450.883C140.122 454.633 141.443 458.294 143.053 461.831C148.254 473.601 156.648 483.678 167.284 490.92C177.92 498.162 190.372 502.279 203.229 502.804C207.116 502.995 211.011 502.886 214.881 502.477C216.263 502.24 217.659 502.088 219.059 502.024Z" fill="#263238"/>
<g opacity="0.3">
<path opacity="0.3" d="M151.208 477.385C159.588 492.032 170.914 505.824 186.442 512.619C201.97 519.414 222.079 517.376 232.977 504.465C232.977 504.465 208.791 504.012 194.345 502.376C179.898 500.74 158.405 490.044 151.258 477.385" fill="black"/>
</g>
<path d="M36.9724 669.991C36.9724 669.991 36.0915 671.3 33.7761 671.753C32.2522 672.106 30.6571 671.986 29.2028 671.41C27.7486 670.834 26.5044 669.829 25.6355 668.528C24.7666 667.228 24.3143 665.693 24.3388 664.129C24.3634 662.565 24.8635 661.046 25.7728 659.773C27.1067 657.81 28.6168 657.382 28.6419 657.508C28.6671 657.634 27.5345 658.389 26.5782 660.252C25.9383 661.413 25.6154 662.722 25.6419 664.047C25.6684 665.372 26.0434 666.667 26.7292 667.802C27.5268 668.858 28.5817 669.693 29.7932 670.226C31.0048 670.759 32.3326 670.973 33.6503 670.847C34.7746 670.632 35.8842 670.346 36.9724 669.991Z" fill="#263238"/>
<path d="M50.8647 479.121C50.8647 478.165 53.3815 469.054 59.774 466.185C66.1666 463.316 83.658 465.279 83.658 465.279L95.965 481.638C95.965 481.638 94.5304 488.609 84.3627 486.797C84.3627 486.797 103.817 500.992 103.087 507.409C102.902 509.259 102.34 511.05 101.436 512.674C100.531 514.297 99.3028 515.717 97.8273 516.847C97.8273 516.847 106.938 522.107 103.943 528.575C103.216 530.346 101.882 531.8 100.18 532.676C98.4782 533.552 96.5199 533.794 94.6562 533.357C94.6562 533.357 96.0908 543.575 84.9919 541.335C73.893 539.095 57.5845 531.419 57.5845 531.419C57.3442 532.214 57.2777 533.052 57.3897 533.875C57.5017 534.698 57.7896 535.487 58.2336 536.189C58.6777 536.891 59.2676 537.489 59.9633 537.943C60.659 538.396 61.4442 538.695 62.2656 538.818C66.2347 539.707 69.925 541.556 73.0122 544.204C73.0122 544.204 73.6917 552.384 66.3679 551.226C59.0442 550.068 52.1734 550.597 45.5795 545.966C38.9856 541.335 32.6686 539.624 34.078 532.98C35.4874 526.335 36.5948 525.152 36.5948 525.152C36.5948 525.152 32.6435 516.294 36.4438 511.864L40.244 507.409C40.244 507.409 35.3867 498.752 39.8413 493.769C44.296 488.785 50.1097 483.249 50.1097 483.249L50.8647 479.121Z" fill="#C78976"/>
<path d="M97.928 516.671C95.8544 515.724 93.8599 514.613 91.9633 513.349C88.3392 511.185 83.356 508.315 77.7688 505.044C72.1816 501.772 67.0726 499.129 63.3729 497.141C61.3032 496.179 59.3238 495.034 57.4586 493.718C59.6448 494.339 61.7616 495.182 63.7756 496.235C67.6011 498.022 72.8108 500.665 78.4232 503.785C84.0355 506.906 88.9683 510.077 92.4666 512.443C94.4368 513.647 96.2684 515.065 97.928 516.671Z" fill="#BF654E"/>
<path d="M96.141 533.558C88.9239 530.46 81.8756 526.982 75.0255 523.139C67.9896 519.659 61.1505 515.794 54.5392 511.562C61.7705 514.63 68.8205 518.109 75.6547 521.981C82.6967 525.45 89.5364 529.315 96.141 533.558Z" fill="#BF654E"/>
<path d="M85.47 487.93C81.4946 486.51 77.6745 484.689 74.0691 482.494C70.2589 480.672 66.6416 478.471 63.2723 475.925C67.2569 477.331 71.0859 479.144 74.6983 481.336C78.5086 483.153 82.1187 485.363 85.47 487.93Z" fill="#BF654E"/>
<path d="M307.321 26.9871C309.184 19.2355 308.077 10.1249 301.961 4.7894C296.6 0.108244 288.521 -0.596441 281.474 1.03945C276.563 2.10298 271.976 4.32216 268.094 7.51293C264.211 10.7037 261.146 14.7741 259.151 19.3866C257.337 24.011 256.978 29.0787 258.12 33.9129C259.262 38.7471 261.852 43.1179 265.543 46.4416L285.174 51.0724C290.397 50.1809 295.233 47.7459 299.059 44.0812C302.885 40.4164 305.526 35.6899 306.642 30.5106C306.843 29.0509 307.145 27.7925 307.321 26.9871Z" fill="#263238"/>
<path d="M295.442 49.3862C293.936 48.1195 292.105 47.2997 290.157 47.0195C288.209 46.7393 286.221 47.0099 284.419 47.8006C284.935 46.1291 284.98 44.3477 284.549 42.6523C284.119 40.9568 283.229 39.413 281.978 38.1904C280.727 36.9678 279.162 36.1139 277.457 35.7225C275.753 35.3311 273.973 35.4174 272.314 35.9719C270.602 36.5508 268.84 37.6078 267.154 37.0289C264.637 36.1229 264.637 32.5491 263.631 30.0072C263.207 28.9342 262.528 27.9806 261.653 27.2292C260.777 26.4777 259.732 25.9509 258.607 25.6945C257.482 25.4381 256.312 25.4597 255.197 25.7576C254.083 26.0554 253.058 26.6204 252.211 27.4038C251.364 28.1871 250.721 29.1651 250.337 30.2531C249.953 31.341 249.84 32.5062 250.008 33.6475C250.176 34.7889 250.62 35.8721 251.301 36.8034C251.982 37.7347 252.879 38.4859 253.916 38.992C264.763 41.5088 275.787 48.8828 284.595 55.7284C286.31 57.2569 288.255 58.5055 290.359 59.428C291.422 59.8789 292.59 60.0259 293.731 59.8526C294.873 59.6793 295.945 59.1925 296.827 58.4465C299.268 56.1059 298.06 51.6261 295.442 49.3862Z" fill="#FF1493"/>
<path d="M162.382 280.625C162.382 280.399 164.899 279.971 168.296 278.108C172.9 275.889 176.77 272.394 179.447 268.04C182.124 263.686 183.494 258.655 183.397 253.545C183.397 249.619 182.642 247.253 182.843 247.178C183.044 247.102 183.195 247.731 183.523 248.813C183.956 250.349 184.226 251.927 184.328 253.52C184.674 258.853 183.356 264.163 180.557 268.715C177.758 273.268 173.614 276.84 168.699 278.939C167.235 279.592 165.697 280.065 164.118 280.348C163.564 280.558 162.974 280.652 162.382 280.625Z" fill="#263238"/>
<path d="M213.069 41.9618C205.127 37.9168 196.655 35.0108 187.902 33.3293C179.546 31.5424 170.285 32.524 163.54 37.9098C154.781 45.007 152.869 57.5405 146.224 66.6511C141.921 72.5655 135.755 76.7181 130.293 81.6258C124.832 86.5334 119.698 92.473 118.741 99.7212C117.936 105.661 120.025 111.625 119.622 117.59C118.616 132.263 102.961 144.091 105.428 158.613C107.265 169.284 118.364 176.23 121.208 186.7C122.919 192.967 121.384 199.661 122.24 206.104C123.713 214.444 128.19 221.955 134.824 227.22C141.397 232.426 148.72 236.609 156.543 239.627C165.402 243.436 174.446 246.792 183.674 249.694C189.135 251.406 195.955 252.639 199.781 248.386C202.474 245.416 202.449 240.961 202.298 236.96C199.026 171.675 196.333 105.183 213.069 41.9618Z" fill="#263238"/>
<path d="M279.662 280.449L280.317 97.5568C280.208 93.8064 278.694 90.2339 276.074 87.5484C273.453 84.8629 269.919 83.2609 266.173 83.0603L212.465 61.4163L198.422 62.9766C166.786 62.9766 144.815 97.7078 144.488 123.379C144.11 151.818 144.79 186.574 149.219 207.589C158.103 249.795 190.997 253.595 190.997 253.595C190.997 253.595 190.62 265.122 190.267 279.266L166.61 355.096L279.662 280.449Z" fill="#C78976"/>
<path d="M161.149 147.514C161.214 148.936 161.826 150.278 162.858 151.259C163.891 152.239 165.262 152.782 166.686 152.774C167.384 152.794 168.078 152.675 168.729 152.422C169.38 152.17 169.974 151.79 170.476 151.304C170.978 150.819 171.378 150.238 171.652 149.596C171.926 148.953 172.068 148.263 172.071 147.565C172.013 146.14 171.402 144.795 170.368 143.813C169.335 142.831 167.96 142.29 166.535 142.305C165.837 142.288 165.144 142.41 164.495 142.664C163.845 142.917 163.253 143.298 162.751 143.782C162.25 144.267 161.85 144.847 161.575 145.487C161.3 146.128 161.155 146.817 161.149 147.514Z" fill="#263238"/>
<path d="M152.39 136.793C152.969 137.749 158.053 134.805 164.37 135.837C170.687 136.868 174.764 141.122 175.595 140.367C175.997 140.04 175.595 138.378 173.758 136.415C171.445 133.92 168.357 132.28 164.995 131.759C161.633 131.238 158.194 131.868 155.234 133.546C153.02 134.905 152.088 136.34 152.39 136.793Z" fill="#263238"/>
<path d="M191.576 183.831C188.426 183.024 185.189 182.601 181.937 182.573C180.427 182.573 178.992 182.271 178.69 181.264C178.519 179.767 178.79 178.254 179.471 176.91C180.712 173.185 182.004 169.301 183.346 165.257C188.682 148.697 192.482 135.056 191.803 134.88C191.123 134.704 186.266 147.942 180.905 164.502C179.622 168.579 178.388 172.48 177.231 176.205C176.382 178.059 176.212 180.153 176.753 182.12C176.992 182.632 177.341 183.085 177.776 183.447C178.212 183.808 178.722 184.068 179.269 184.208C180.098 184.372 180.942 184.448 181.786 184.435C185.062 184.636 188.35 184.433 191.576 183.831Z" fill="#263238"/>
<path d="M190.997 253.545C211.05 252.84 230.513 246.585 247.222 235.475C247.222 235.475 233.53 265.676 190.721 263.889L190.997 253.545Z" fill="#BF654E"/>
<path d="M194.773 197.849C195.82 196.387 197.221 195.216 198.846 194.446C200.471 193.675 202.265 193.331 204.059 193.445C205.359 193.503 206.634 193.82 207.81 194.377C208.985 194.935 210.038 195.722 210.905 196.692C211.738 197.63 212.263 198.803 212.407 200.05C212.551 201.297 212.308 202.559 211.71 203.663C210.826 204.758 209.635 205.565 208.291 205.982C206.947 206.398 205.509 206.406 204.16 206.004C201.336 205.166 198.709 203.771 196.434 201.901C195.748 201.462 195.15 200.899 194.672 200.24C194.458 199.915 194.343 199.535 194.343 199.145C194.343 198.756 194.458 198.375 194.672 198.051" fill="#FF1493"/>
<path d="M209.068 186.977C208.086 186.977 208.413 193.344 203.178 198.151C197.944 202.958 191.123 202.581 191.123 203.462C191.123 203.864 192.684 204.644 195.578 204.569C199.312 204.431 202.877 202.978 205.645 200.467C208.311 198.061 209.936 194.712 210.175 191.13C210.276 188.512 209.495 186.977 209.068 186.977Z" fill="#263238"/>
<path d="M152.919 118.546C154.152 119.805 158.607 118.194 164.093 117.867C169.58 117.54 174.16 118.244 175.217 116.81C175.645 116.105 174.865 114.796 172.701 113.639C169.851 112.215 166.661 111.614 163.489 111.902C160.328 112.087 157.287 113.179 154.731 115.048C152.944 116.508 152.365 117.917 152.919 118.546Z" fill="#263238"/>
<path d="M229.227 146.709C229.254 148.132 228.725 149.51 227.752 150.549C226.779 151.588 225.439 152.206 224.017 152.271C223.325 152.336 222.626 152.262 221.962 152.054C221.299 151.845 220.684 151.505 220.154 151.055C219.624 150.604 219.189 150.052 218.876 149.431C218.562 148.81 218.376 148.133 218.329 147.439C218.288 146.719 218.391 145.999 218.629 145.319C218.868 144.639 219.24 144.013 219.721 143.478C220.203 142.942 220.787 142.507 221.437 142.198C222.088 141.888 222.794 141.711 223.514 141.675C224.224 141.61 224.939 141.69 225.617 141.911C226.295 142.132 226.921 142.489 227.456 142.96C227.991 143.432 228.424 144.007 228.728 144.652C229.033 145.296 229.202 145.996 229.227 146.709Z" fill="#263238"/>
<path d="M236.551 114.822C235.242 116.181 230.007 114.822 223.74 114.822C217.474 114.822 212.188 115.879 210.955 114.494C210.427 113.815 211.232 112.456 213.472 111.172C216.681 109.548 220.246 108.752 223.841 108.857C227.413 108.818 230.937 109.684 234.084 111.374C236.374 112.808 237.129 114.167 236.551 114.822Z" fill="#263238"/>
<path d="M215.737 59.2015C237.004 88.1441 259.654 120.862 281.651 149.2C285.451 135.056 289.025 113.689 286.382 99.2681C283.986 84.6438 276.279 71.4172 264.738 62.1209C253.06 53.2368 232.272 51.3996 218.682 56.8609" fill="#263238"/>
<path d="M271.835 169.36C271.684 166.189 274.981 158.538 278.077 157.908C286.382 156.172 301.483 156.096 302.691 177.313C304.326 206.306 274.855 201.977 274.78 201.146C274.704 200.316 272.364 180.408 271.835 169.36Z" fill="#C78976"/>
<path d="M283.01 189.77C283.136 189.77 283.538 190.098 284.419 190.425C285.646 190.875 287 190.829 288.194 190.299C291.189 188.99 293.505 183.982 293.228 178.747C293.169 176.259 292.549 173.816 291.416 171.6C291.088 170.709 290.552 169.91 289.851 169.271C289.15 168.631 288.306 168.17 287.389 167.925C286.8 167.795 286.183 167.881 285.652 168.167C285.12 168.454 284.71 168.922 284.495 169.485C284.142 170.316 284.495 170.895 284.218 170.945C283.941 170.996 283.563 170.492 283.74 169.284C283.853 168.554 284.218 167.886 284.771 167.397C285.147 167.074 285.583 166.829 286.054 166.678C286.525 166.527 287.022 166.472 287.515 166.516C288.717 166.682 289.857 167.154 290.826 167.885C291.795 168.616 292.561 169.583 293.052 170.693C294.423 173.144 295.183 175.89 295.266 178.697C295.417 184.536 292.75 190.173 288.597 191.633C287.833 191.905 287.018 192.001 286.211 191.914C285.405 191.827 284.629 191.558 283.941 191.129C283.11 190.475 282.909 189.821 283.01 189.77Z" fill="#BF654E"/>
<path d="M206.475 51.0724C188.632 52.4566 167.768 57.9683 156.644 71.9866C145.52 86.0049 139.152 103.32 135.377 120.837C132.186 137.577 130.101 154.509 129.136 171.524C128.239 179.262 128.146 187.072 128.859 194.829C129.597 202.632 132.746 210.012 137.869 215.945C134.673 209.074 141.493 197.472 140.839 187.027L145.243 169.636C144.513 155.82 149.848 150.358 150.276 143.789C150.604 138.756 148.338 134.15 146.677 129.494C145.016 124.838 143.909 119.427 146.35 115.099C148.791 110.77 154.781 108.656 158.028 104.478C161.728 99.7212 161.426 92.8756 164.546 87.7163C168.925 80.5435 178.288 78.7315 185.687 74.7298C195.276 69.5453 207.331 64.6629 208.942 53.7905L206.475 51.0724Z" fill="#263238"/>
<path d="M234.487 136.642C233.883 137.598 228.749 134.528 222.256 135.484C215.762 136.441 211.534 140.669 210.704 139.888C210.301 139.561 210.704 137.875 212.642 135.912C215.068 133.402 218.268 131.78 221.727 131.306C225.166 130.817 228.668 131.528 231.643 133.32C233.883 134.628 234.839 136.088 234.487 136.642Z" fill="#263238"/>
<path d="M215.309 185.794C214.957 185.794 214.328 184.737 213.044 183.932C211.76 183.126 210.527 183 210.527 182.648C210.527 182.296 212.138 181.717 213.875 182.849C215.611 183.982 215.661 185.769 215.309 185.794Z" fill="#BF654E"/>
<path d="M326.751 177.942C326.575 169.687 319.93 162.841 318.521 154.612C317.338 147.716 318.999 140.719 319.855 133.773C321.654 116.665 318.499 99.4004 310.767 84.034C303.034 68.6676 291.05 55.8463 276.24 47.0959C264.257 40.7892 251.447 36.1974 238.186 33.4552C233.117 31.9357 227.805 31.3892 222.532 31.8444C219.895 32.1149 217.374 33.0669 215.216 34.6069C213.058 36.1469 211.338 38.2219 210.225 40.6279C204.034 49.21 201.543 62.4481 206.475 71.8104C213.699 85.5016 233.782 87.7163 241.962 100.879C250.72 114.973 241.785 134.528 248.933 149.528C253.463 159.091 260.133 161.986 263.731 171.927C265.569 176.96 262.851 188.94 265.619 193.546C269.57 200.114 273.169 207.035 279.914 210.584L279.788 241.716C297.758 235.475 327.632 215.945 326.751 177.942Z" fill="#263238"/>
<path d="M315.803 137.045C315.334 137.161 314.851 137.211 314.368 137.196C312.987 137.195 311.617 136.957 310.316 136.491C305.591 134.487 301.687 130.937 299.243 126.424C297.532 123.405 296.002 120.287 294.662 117.087C293.199 113.462 291.298 110.03 289 106.869C286.348 103.506 282.809 100.951 278.782 99.4947C274.401 97.9494 269.884 96.8203 265.292 96.1222C248.872 93.3654 233.496 86.2464 220.771 75.5101C216.94 72.2791 213.411 68.7074 210.225 64.839C209.043 63.5052 208.288 62.3223 207.709 61.6176C207.405 61.2448 207.143 60.8397 206.928 60.4096C206.928 60.4096 208.237 61.8693 210.603 64.4867C213.905 68.1986 217.499 71.6407 221.349 74.7802C227.054 79.4348 233.278 83.4126 239.898 86.6341C247.998 90.5884 256.628 93.3518 265.518 94.8387C270.197 95.5561 274.797 96.7104 279.26 98.2866C283.486 99.8581 287.19 102.577 289.956 106.139C292.281 109.4 294.2 112.933 295.669 116.659C296.953 119.83 298.406 122.93 300.023 125.946C302.313 130.36 305.992 133.897 310.493 136.013C312.199 136.628 313.99 136.976 315.803 137.045Z" fill="#455A64"/>
<path d="M315.551 98.1356C314.905 96.6658 314.139 95.2517 313.261 93.9075C310.493 90.4997 306.74 88.0298 302.515 86.8355C299.642 85.8991 296.668 85.3076 293.656 85.0737C290.384 84.822 286.886 84.7717 283.161 84.5956C279.232 84.479 275.329 83.9046 271.533 82.8841C267.434 81.639 263.684 79.4495 260.585 76.4916C257.596 73.5586 254.756 70.4758 252.079 67.2551C249.603 64.3212 246.809 61.6708 243.748 59.3525C234.858 52.8757 224.001 49.6745 213.019 50.2922C209.898 50.4684 208.212 50.8459 208.187 50.6949C208.57 50.5251 208.978 50.4148 209.395 50.3677C210.581 50.0997 211.783 49.9063 212.994 49.7889C217.44 49.3346 221.93 49.5638 226.307 50.4684C232.856 51.7596 239.047 54.4557 244.453 58.371C250.745 62.6998 255.325 69.7719 261.466 75.5101C264.416 78.3372 267.983 80.4395 271.886 81.6509C275.59 82.663 279.399 83.2457 283.236 83.3875C286.911 83.5888 290.434 83.6895 293.756 83.9915C296.845 84.2747 299.888 84.9339 302.817 85.9546C307.145 87.2633 310.95 89.9057 313.689 93.5048C314.647 94.8903 315.283 96.4725 315.551 98.1356Z" fill="white"/>
<path d="M314.796 258.528C314.159 258.86 313.451 259.032 312.733 259.031C310.77 259.161 308.806 258.797 307.02 257.974C304.384 256.765 302.008 255.055 300.023 252.941C297.62 250.393 295.548 247.552 293.857 244.485C290.768 238.913 288.962 232.722 288.572 226.364C288.421 224.446 288.421 222.519 288.572 220.601C288.59 219.893 288.734 219.194 289 218.537C289.226 218.537 288.874 221.532 289.402 226.288C290.04 232.468 291.905 238.457 294.889 243.906C297.647 249.433 301.959 254.034 307.296 257.144C309.634 258.248 312.219 258.725 314.796 258.528Z" fill="#263238"/>
<path d="M327.632 279.946C326.77 280.4 325.846 280.723 324.888 280.902C322.278 281.53 319.577 281.692 316.91 281.38C308.054 280.162 300.029 275.517 294.562 268.444C289.343 261.361 285.774 253.201 284.117 244.56C283.387 241.288 282.959 238.621 282.733 236.758C282.539 235.806 282.463 234.834 282.506 233.864C282.733 233.864 283.387 237.916 285.023 244.334C286.903 252.747 290.502 260.682 295.593 267.639C300.882 274.446 308.535 279.018 317.036 280.449C320.572 280.841 324.148 280.671 327.632 279.946Z" fill="#263238"/>
<path d="M345.903 247.077C345.583 247.283 345.236 247.444 344.871 247.555C344.192 247.807 343.16 248.209 341.801 248.662C338.015 250.02 334.042 250.785 330.023 250.927C327.19 250.955 324.382 250.407 321.768 249.317C318.72 248.007 316.208 245.699 314.645 242.773C313.802 241.173 313.345 239.397 313.311 237.589C313.311 235.682 313.852 233.814 314.872 232.203C315.877 230.48 317.414 229.129 319.251 228.352C320.2 227.923 321.229 227.701 322.271 227.701C323.313 227.701 324.342 227.923 325.291 228.352C327.196 229.202 328.72 230.726 329.57 232.631C329.99 233.566 330.181 234.588 330.129 235.612C330.076 236.636 329.781 237.632 329.268 238.52C328.269 240.165 326.782 241.458 325.014 242.22C323.433 242.98 321.728 243.449 319.981 243.604C313.881 244.161 307.808 242.279 303.093 238.369C299.991 235.743 297.646 232.338 296.298 228.503C295.937 227.472 295.668 226.411 295.493 225.332C295.421 224.95 295.421 224.557 295.493 224.174C295.619 224.174 295.845 225.71 296.877 228.327C298.361 231.972 300.742 235.184 303.798 237.664C308.373 241.284 314.177 242.981 319.981 242.396C321.625 242.331 323.232 241.892 324.68 241.111C326.128 240.33 327.379 239.229 328.336 237.891C328.708 237.129 328.916 236.298 328.945 235.45C328.975 234.603 328.826 233.759 328.508 232.974C328.19 232.188 327.71 231.478 327.099 230.89C326.489 230.302 325.761 229.849 324.964 229.56C323.346 228.94 321.558 228.933 319.935 229.54C318.313 230.147 316.968 231.327 316.155 232.857C315.294 234.259 314.819 235.863 314.779 237.508C314.74 239.152 315.136 240.778 315.929 242.22C317.346 244.922 319.634 247.068 322.422 248.31C324.887 249.373 327.539 249.938 330.224 249.971C334.176 249.914 338.099 249.296 341.876 248.134C343.192 247.686 344.538 247.333 345.903 247.077Z" fill="#263238"/>
<path d="M307.447 8.2877C307.447 8.51421 304.15 7.53268 298.815 7.50751C291.862 7.45429 285.025 9.28968 279.033 12.8179C273.108 16.4474 268.334 21.6837 265.267 27.9184C264.103 30.5702 263.087 33.284 262.221 36.0475C262.18 35.2505 262.265 34.452 262.473 33.6817C262.905 31.5703 263.563 29.5115 264.436 27.5408C267.347 20.9582 272.204 15.4249 278.354 11.6853C284.548 8.05076 291.667 6.30151 298.84 6.65181C300.99 6.73125 303.125 7.04348 305.207 7.58301C305.989 7.68764 306.747 7.92601 307.447 8.2877Z" fill="#455A64"/>
<path d="M300.275 44.6044C300.073 44.6044 300.275 42.3141 300.098 38.7152C299.726 34.04 298.353 29.4995 296.072 25.4016C293.737 21.3265 290.583 17.7789 286.81 14.9822C283.916 12.8178 281.777 11.8615 281.953 11.6601C283.899 12.1281 285.731 12.9841 287.339 14.1769C291.416 16.8498 294.798 20.4561 297.204 24.6969C299.606 28.9501 300.921 33.731 301.03 38.6145C301.212 40.6422 300.954 42.6854 300.275 44.6044Z" fill="#455A64"/>
<path d="M245.032 162.061C243.452 161.669 241.897 161.182 240.376 160.601C236.634 159.573 232.742 159.207 228.874 159.519C225.013 159.871 221.246 160.911 217.75 162.59C216.346 163.4 214.901 164.14 213.422 164.804C214.466 163.552 215.76 162.532 217.222 161.809C220.74 159.823 224.642 158.614 228.666 158.262C232.69 157.911 236.743 158.425 240.552 159.771C242.193 160.202 243.721 160.983 245.032 162.061Z" fill="#BF654E"/>
<path d="M244.906 394.659C243.446 379.558 243.371 412.503 244.906 394.659V394.659Z" fill="#C78976"/>
<path d="M342.707 388.09C342.002 371.102 338.479 334.911 320.056 314.375C297.934 289.811 271.861 292.253 255.2 320.818C238.212 349.936 246.139 380.188 244.906 394.659L265.518 565.068C265.518 565.068 177.13 724.278 151.761 736.937L192.029 756.291C221.45 744.059 321.692 634.782 349.98 580.269C361.708 557.77 343.412 405.104 342.707 388.09Z" fill="#C78976"/>
<path d="M243.673 447.788L352.774 425.816C352.774 425.816 343.789 357.613 331.784 324.467C322.422 298.67 293.379 288.981 293.379 288.981L245.409 317.848C245.409 317.848 237.205 356.656 237.859 392.167C238.514 427.679 243.673 447.788 243.673 447.788Z" fill="#E51284"/>
<path d="M303.899 300.482C303.29 300.646 302.666 300.747 302.036 300.784L296.701 301.388C290.18 302.072 283.719 303.241 277.372 304.887C267.918 307.175 259.395 312.315 252.96 319.61C245.913 327.965 241.861 339.744 240.502 352.327C239.143 364.911 240.502 377.042 240.829 388.04L242.238 417.285C242.591 425.489 242.867 432.184 243.069 436.991C243.069 439.239 243.119 441.026 243.22 442.352C243.28 442.979 243.28 443.611 243.22 444.239C243.08 443.628 243.004 443.004 242.993 442.377C242.993 441.018 242.742 439.256 242.591 437.016C242.289 432.234 241.861 425.54 241.332 417.31C240.804 409.08 240.275 399.063 239.646 388.065C239.017 377.067 237.658 364.961 239.218 352.176C240.779 339.391 244.755 327.412 252.054 318.855C255.513 314.84 259.675 311.488 264.335 308.964C268.385 306.771 272.687 305.08 277.146 303.93C283.554 302.331 290.088 301.287 296.676 300.809C299.016 300.608 300.803 300.507 302.036 300.432C302.657 300.395 303.281 300.412 303.899 300.482Z" fill="#263238"/>
<path d="M69.69 750.855C69.69 750.855 72.3829 734.697 82.0976 735.452C91.8123 736.207 92.97 736.912 99.1612 733.615C105.352 730.318 109.228 721.031 125.562 720.754C141.896 720.477 158.154 727.726 167.466 724.076L201.618 750.855C201.618 750.855 170.184 777.985 160.092 782.037C149.999 786.089 125.939 787.071 122.064 785.712C118.188 784.352 91.8626 777.985 89.069 776.525C86.2754 775.066 63.9015 764.797 63.4737 761.425C63.0458 758.052 67.5005 755.183 70.6967 755.938C73.893 756.693 90.5791 760.972 98.381 756.895C101.56 754.986 104.935 753.425 108.448 752.239L69.69 750.855Z" fill="#C78976"/>
</svg>
