<svg width="352" height="840" viewBox="0 0 352 840" fill="none" xmlns="http://www.w3.org/2000/svg">
<path d="M323.076 628.943L190.443 666.015C154.227 668.959 80.9647 675.276 80.9647 675.276L92.9697 839.419L143.028 838.79V839.444H303.395C303.395 839.444 337.321 788.983 340.819 726.87C342.719 693.284 336.639 659.727 323.076 628.943Z" fill="#263238"/>
<path d="M178.69 694.907C178.275 695.284 177.819 695.613 177.331 695.888L173.304 698.405C169.831 700.67 164.747 703.867 158.808 708.321C151.787 713.383 145.611 719.524 140.511 726.517C137.595 730.682 135.345 735.276 133.842 740.133C132.305 745.395 131.31 750.801 130.872 756.265C129.11 778.916 127.524 799.201 126.367 814.15C125.738 821.424 125.234 827.389 124.882 831.768C124.681 833.731 124.53 835.291 124.404 836.524C124.376 837.085 124.292 837.642 124.152 838.185C124.086 837.625 124.086 837.059 124.152 836.499C124.152 835.291 124.152 833.706 124.379 831.717C124.63 827.414 125.008 821.449 125.436 814.1C126.442 799.277 127.751 778.866 129.563 756.215C130.009 750.671 131.03 745.189 132.608 739.856C134.183 734.892 136.508 730.198 139.504 725.938C144.722 718.871 151.054 712.7 158.254 707.667C164.294 703.288 169.479 700.117 173.053 698.078C174.84 697.021 176.249 696.216 177.205 695.687C177.67 695.373 178.168 695.111 178.69 694.907Z" fill="#455A64"/>
<path d="M278.479 836.197C278.696 835.591 278.974 835.009 279.31 834.461L281.978 829.603L283.916 826.13C284.595 824.847 285.249 823.412 286.004 821.902C287.489 818.832 289.352 815.434 291.038 811.457C291.894 809.494 292.775 807.431 293.555 805.291C294.335 803.152 295.241 800.837 296.071 798.496C297.909 793.815 299.444 788.656 301.105 783.396C304.473 771.607 306.921 759.574 308.429 747.406C309.799 735.226 310.245 722.96 309.763 710.712C309.36 705.074 309.108 699.714 308.378 694.731C308.051 692.214 307.85 689.823 307.472 687.508C307.095 685.192 306.667 683.028 306.315 680.914C305.66 676.686 304.653 672.936 303.798 669.613C303.42 667.978 303.093 666.417 302.716 665.008C302.338 663.598 301.961 662.34 301.633 661.182C301.029 658.968 300.526 657.206 300.174 655.872C299.97 655.258 299.826 654.626 299.746 653.984C300.019 654.561 300.247 655.159 300.425 655.771C300.853 657.105 301.407 658.842 302.137 661.031C302.489 662.189 302.892 663.548 303.32 664.832C303.748 666.115 304.1 667.801 304.503 669.437C305.308 672.759 306.39 676.509 307.019 680.737C307.422 682.852 307.825 685.066 308.252 687.357C308.68 689.647 308.907 692.088 309.259 694.605C310.039 699.638 310.341 704.999 310.769 710.662C311.325 722.982 310.912 735.327 309.536 747.582C307.983 759.811 305.458 771.896 301.986 783.723C300.274 789.159 298.714 794.318 296.801 799C295.87 801.34 295.115 803.656 294.134 805.795C293.152 807.934 292.271 809.998 291.415 811.961C289.754 815.912 287.816 819.31 286.382 822.355C285.602 823.865 284.897 825.3 284.167 826.558L282.129 829.981L279.259 834.712C279.036 835.226 278.775 835.722 278.479 836.197Z" fill="#455A64"/>
<path d="M122.667 730.141C121.025 729.631 119.465 728.885 118.036 727.927C114.442 725.88 110.964 723.637 107.617 721.207C104.252 718.806 101.017 716.227 97.9277 713.48C96.571 712.419 95.3683 711.173 94.3539 709.781C94.6056 709.504 100.57 714.563 108.372 720.15C116.174 725.737 122.894 729.814 122.667 730.141Z" fill="#455A64"/>
<path d="M285.954 49.3858C293.857 55.9294 296.801 66.7011 297.909 76.8939C299.016 87.0867 298.764 97.5816 302.111 107.271C306.088 118.773 314.972 128.789 315.475 140.92C315.903 151.969 309.184 163.042 312.279 173.638C315.752 185.441 330.123 191.809 332.74 203.839C335.358 215.869 325.366 227.119 326.901 239.073C328.009 247.781 334.804 254.425 339.636 261.724C352.019 280.423 351.792 304.509 351.113 326.883C296.172 336.572 240.124 323.158 184.378 320.767C140.958 318.917 97.5116 323.773 55.5709 335.163C55.2084 316.022 61.3381 297.322 72.9616 282.11C75.9313 278.259 79.4045 274.232 79.48 269.375C79.48 262.278 72.4078 256.791 71.8038 249.744C70.8726 238.973 84.8657 232.454 86.9043 221.834C88.2634 214.459 83.5067 207.413 82.6762 199.963C81.9212 193.092 94.9076 178.092 94.9076 171.197C94.9076 158.21 82.9027 147.64 82.8524 133.445C82.8021 119.251 94.6559 105.912 99.5384 89.8552" fill="#263238"/>
<path d="M294.561 586.359C287.615 574.506 308.504 489.44 316.835 416.001C336.692 343.015 326.323 313.594 309.989 283.242C305.66 275.163 294.561 265.952 287.087 260.591L260.006 241.414L180.98 243.427C180.98 243.427 119.068 312.361 107.844 322.831C96.6189 333.3 23.2557 391.714 71.9045 447.108L71.1998 694.831C99.941 701.45 330.199 638.028 330.199 638.028C317.455 621.418 305.561 604.173 294.561 586.359Z" fill="#E51284"/>
<g opacity="0.3">
<path opacity="0.3" d="M180.93 533.055C149.622 551.779 111.468 556.158 79.7819 574.204C76.3439 575.752 73.4629 578.317 71.5269 581.553V598.188C85.9731 608.079 104.949 606.871 120.151 598.188C124.731 595.671 129.135 592.098 134.395 591.594C138.523 591.217 142.575 592.777 146.652 593.557C162.759 596.678 178.69 587.92 191.802 578.105C223.916 554.044 250.216 519.716 256.282 480.077C227.817 491.881 207.356 517.275 180.93 533.055Z" fill="black"/>
</g>
<path d="M193.413 11.2319C185.473 7.18163 177 4.27535 168.246 2.59946C159.89 0.812564 150.628 1.7941 143.884 7.17994C135.125 14.2772 133.212 26.8106 126.568 35.9212C122.265 41.8356 116.099 45.9882 110.637 50.8959C105.176 55.8035 100.067 61.743 99.0854 68.9913C98.3052 74.9056 100.369 80.8955 99.9662 86.8602C98.9595 101.533 83.3055 113.362 85.7719 127.883C87.6091 138.554 98.733 145.501 101.552 155.97C103.263 162.237 101.753 168.931 102.609 175.374C104.078 183.716 108.555 191.228 115.193 196.49C121.773 201.687 129.093 205.869 136.912 208.897C145.788 212.689 154.84 216.045 164.068 218.964C169.504 220.676 176.35 221.909 180.175 217.656C182.843 214.686 182.818 210.105 182.692 206.23C179.344 140.945 176.652 74.4526 193.413 11.2319Z" fill="#263238"/>
<path d="M259.981 249.719L260.661 66.8269C260.518 63.0834 258.988 59.5267 256.37 56.8477C253.751 54.1687 250.231 52.5587 246.491 52.3304L192.809 30.6864L178.741 32.2468C147.105 32.2468 125.134 66.9779 124.807 92.6488C124.429 121.088 125.109 155.844 129.538 176.859C138.422 219.065 171.316 222.84 171.316 222.84C171.316 222.84 170.939 234.392 170.586 248.536L146.929 324.366L259.981 249.719Z" fill="#C78976"/>
<path d="M141.493 122.019C141.545 123.443 142.155 124.79 143.19 125.769C144.226 126.748 145.605 127.281 147.029 127.254C147.726 127.274 148.42 127.154 149.07 126.902C149.719 126.649 150.311 126.268 150.811 125.783C151.311 125.297 151.708 124.716 151.98 124.074C152.251 123.431 152.39 122.741 152.39 122.044C152.338 120.625 151.731 119.282 150.701 118.303C149.671 117.325 148.299 116.789 146.878 116.81C146.18 116.786 145.483 116.903 144.831 117.154C144.178 117.406 143.583 117.786 143.08 118.272C142.578 118.758 142.178 119.34 141.905 119.984C141.633 120.628 141.492 121.32 141.493 122.019Z" fill="#263238"/>
<path d="M132.734 106.063C133.313 107.019 138.397 104.075 144.739 105.107C151.081 106.139 155.108 110.392 155.939 109.637C156.341 109.31 155.939 107.649 154.127 105.685C151.799 103.18 148.697 101.531 145.318 101.004C141.96 100.484 138.524 101.123 135.578 102.816C133.338 104.125 132.407 105.61 132.734 106.063Z" fill="#263238"/>
<path d="M171.895 153.101C171.895 152.749 168.22 152.321 162.256 151.843C160.771 151.843 159.336 151.541 159.009 150.534C158.815 148.988 159.087 147.42 159.789 146.029L163.665 134.402C169.001 117.841 172.801 104.201 172.122 104.025C171.442 103.848 166.585 117.086 161.224 133.647C159.966 137.724 158.707 141.625 157.575 145.35C156.704 147.197 156.526 149.296 157.071 151.264C157.313 151.774 157.664 152.226 158.099 152.587C158.533 152.948 159.042 153.209 159.588 153.353C160.417 153.515 161.26 153.591 162.105 153.579C165.375 153.824 168.664 153.664 171.895 153.101Z" fill="#263238"/>
<path d="M171.316 222.79C191.37 222.115 210.843 215.885 227.566 204.795C227.566 204.795 213.849 234.996 171.064 233.209L171.316 222.79Z" fill="#BF654E"/>
<path d="M175.091 167.044C176.138 165.582 177.54 164.411 179.165 163.64C180.79 162.87 182.584 162.525 184.378 162.64C185.679 162.693 186.955 163.008 188.131 163.566C189.307 164.124 190.359 164.913 191.224 165.886C192.061 166.822 192.59 167.993 192.739 169.241C192.888 170.488 192.648 171.751 192.054 172.858C191.168 173.95 189.977 174.755 188.634 175.171C187.29 175.588 185.853 175.597 184.504 175.198C181.677 174.349 179.044 172.955 176.752 171.096C176.066 170.657 175.469 170.094 174.991 169.435C174.776 169.11 174.662 168.729 174.662 168.34C174.662 167.951 174.776 167.57 174.991 167.245" fill="#FF1493"/>
<path d="M189.386 156.297C188.43 156.297 188.732 162.665 183.497 167.447C178.262 172.228 171.442 171.901 171.442 172.782C171.442 173.185 173.028 173.965 175.897 173.889C179.631 173.751 183.196 172.298 185.964 169.787C188.64 167.39 190.268 164.036 190.494 160.45C190.62 157.782 189.814 156.222 189.386 156.297Z" fill="#263238"/>
<path d="M153.598 77.7747C152.013 76.9694 148.313 79.9643 143.254 82.0532C138.196 84.1421 133.54 84.9726 133.187 86.6589C133.011 87.4642 134.169 88.4458 136.535 88.8736C139.688 89.2942 142.896 88.8234 145.796 87.5146C148.723 86.3049 151.245 84.2887 153.07 81.7009C154.227 79.7126 154.303 78.2026 153.598 77.7747Z" fill="#263238"/>
<path d="M208.237 123.353C208.264 124.776 207.735 126.154 206.762 127.193C205.789 128.232 204.449 128.85 203.027 128.915C202.335 128.981 201.636 128.907 200.972 128.698C200.309 128.489 199.694 128.149 199.164 127.699C198.634 127.249 198.199 126.697 197.886 126.075C197.572 125.454 197.386 124.777 197.339 124.083C197.305 122.66 197.827 121.279 198.796 120.235C199.764 119.192 201.102 118.568 202.524 118.496C203.219 118.43 203.921 118.505 204.588 118.715C205.255 118.925 205.872 119.267 206.405 119.719C206.937 120.172 207.374 120.727 207.688 121.351C208.003 121.975 208.189 122.656 208.237 123.353Z" fill="#263238"/>
<path d="M192.608 75.2328C194.269 74.3268 198.849 77.1455 204.839 78.9828C210.829 80.82 216.19 81.4995 216.97 83.0851C217.272 83.8904 216.089 84.9475 213.522 85.6018C209.972 86.1991 206.329 85.8962 202.926 84.721C199.498 83.7011 196.388 81.821 193.891 79.2596C192.155 77.221 191.853 75.6859 192.608 75.2328Z" fill="#263238"/>
<path d="M196.081 28.4717C217.322 57.4143 239.973 90.132 261.995 118.471C265.795 104.326 269.369 82.9593 266.701 68.5383C264.304 53.9139 256.598 40.6874 245.057 31.3911C233.404 22.507 212.591 20.6697 199 26.1311" fill="#263238"/>
<path d="M252.179 138.73C252.028 135.559 255.3 127.908 258.421 127.254C266.701 125.543 281.801 125.467 283.009 146.683C284.645 175.676 255.199 171.348 255.099 170.517C254.998 169.686 252.683 149.678 252.179 138.73Z" fill="#C78976"/>
<path d="M263.328 159.041C263.454 159.041 263.857 159.368 264.738 159.695C265.369 159.923 266.039 160.023 266.709 159.988C267.379 159.954 268.035 159.785 268.639 159.494C271.634 158.185 273.949 153.177 273.672 147.942C273.604 145.451 272.976 143.008 271.835 140.794C271.511 139.901 270.976 139.101 270.275 138.461C269.573 137.821 268.727 137.36 267.808 137.12C267.219 136.99 266.602 137.075 266.071 137.362C265.54 137.648 265.129 138.116 264.914 138.68C264.562 139.511 264.914 140.089 264.637 140.14C264.36 140.19 263.983 139.687 264.159 138.479C264.272 137.749 264.637 137.081 265.191 136.591C265.566 136.268 266.002 136.024 266.473 135.873C266.944 135.721 267.441 135.666 267.934 135.71C269.138 135.872 270.28 136.342 271.25 137.074C272.22 137.806 272.984 138.775 273.471 139.888C274.854 142.334 275.615 145.082 275.686 147.891C275.837 153.73 273.169 159.368 269.016 160.827C268.252 161.098 267.437 161.193 266.631 161.106C265.825 161.018 265.049 160.751 264.36 160.324C263.429 159.745 263.228 159.091 263.328 159.041Z" fill="#BF654E"/>
<path d="M186.819 20.418C168.95 21.8022 148.086 27.3139 136.962 41.3322C125.838 55.3505 119.471 72.6658 115.696 90.1823C112.478 106.897 110.351 123.803 109.329 140.794C108.432 148.532 108.339 156.342 109.052 164.099C109.79 171.902 112.939 179.282 118.062 185.215C114.865 178.344 121.686 166.742 121.031 156.297L125.436 138.907C124.706 125.09 130.066 119.603 130.469 113.06C130.796 108.026 128.556 103.42 126.87 98.7393C125.184 94.0581 124.102 88.6723 126.543 84.3435C128.984 80.0147 134.974 77.9257 138.221 73.7479C141.92 68.9913 141.618 62.1458 144.764 56.9864C149.118 49.8137 158.481 47.9764 165.88 44C175.469 38.8155 187.524 33.933 189.135 23.0606L186.819 20.418Z" fill="#263238"/>
<path d="M214.806 105.811C214.202 106.768 209.067 103.697 202.574 104.654C196.081 105.61 191.853 109.838 191.022 109.058C190.62 108.731 191.148 107.045 192.96 105.081C195.387 102.572 198.587 100.95 202.046 100.476C205.484 99.9866 208.986 100.698 211.962 102.489C214.202 103.899 215.133 105.358 214.806 105.811Z" fill="#263238"/>
<path d="M195.653 155.064C195.301 155.064 194.697 154.007 193.388 153.202C192.079 152.396 190.871 152.271 190.871 151.918C190.871 151.566 192.507 150.987 194.219 152.12C195.93 153.252 196.005 155.039 195.653 155.064Z" fill="#BF654E"/>
<path d="M307.07 147.212C306.893 138.957 300.249 132.111 298.84 123.882C297.657 116.986 299.318 109.989 300.174 103.043C301.972 85.9351 298.818 68.6706 291.086 53.3042C283.353 37.9377 271.369 25.1164 256.558 16.3661C244.581 10.0245 231.771 5.39871 218.505 2.62463C213.436 1.10394 208.124 0.557398 202.851 1.01391C200.217 1.28364 197.698 2.23567 195.545 3.77602C193.391 5.31636 191.676 7.39176 190.569 9.79736C184.353 18.3795 181.861 31.6176 186.794 40.9799C194.042 54.671 214.101 56.8858 222.28 70.0484C231.039 84.1422 222.129 103.697 229.252 118.697C233.782 128.261 240.451 131.281 244.075 141.096C245.887 146.13 235.468 163.747 235.141 169.108C233.757 192.287 243.824 213.78 243.421 240.508C243.381 242.849 243.851 245.172 244.799 247.313C245.747 249.455 247.15 251.364 248.91 252.909C250.67 254.453 252.746 255.596 254.992 256.258C257.239 256.92 259.603 257.085 261.919 256.741L283.085 255.206C301.08 249.04 307.951 185.215 307.07 147.212Z" fill="#263238"/>
<path d="M329.418 336.446C329.458 336.114 329.526 335.786 329.62 335.465C329.771 334.785 329.997 333.854 330.274 332.646C330.675 331.123 330.977 329.577 331.18 328.015C331.18 327.109 331.533 326.128 331.608 325.045C331.684 323.963 331.784 322.856 331.885 321.648C332.733 307.96 329.734 294.308 323.227 282.235C318.756 273.95 312.692 266.628 305.383 260.692C301.432 257.571 296.877 254.878 292.397 251.758C287.53 248.759 283.51 244.566 280.719 239.577C279.459 236.814 279.022 233.747 279.461 230.743C280.036 227.73 281.227 224.868 282.959 222.337C286.256 217.303 290.711 212.824 293.026 207.236C295.205 201.367 295.205 194.91 293.026 189.04C290.933 182.915 287.819 177.188 283.815 172.103C279.813 166.893 275.384 162.036 271.382 157.002C267.275 152.054 264.017 146.457 261.743 140.442C259.859 134.504 259.199 128.245 259.805 122.044C260.283 116.004 261.34 110.216 262.12 104.427C263.03 98.9563 263.259 93.3938 262.8 87.8669C262.255 82.6976 260.439 77.7434 257.515 73.4459C254.657 69.5172 251.036 66.2047 246.869 63.7061C243.02 61.3467 238.969 59.3338 234.763 57.6911C226.735 54.4697 219.235 52.0788 212.868 49.4362C207.324 47.3432 202.079 44.5341 197.264 41.0805C194.214 38.8959 191.552 36.2163 189.386 33.1528C188.611 32.112 187.937 30.9996 187.373 29.8307C187.373 29.8307 188.078 30.9632 189.588 33.0018C191.836 35.9559 194.527 38.545 197.566 40.6779C202.436 44.0278 207.713 46.7426 213.27 48.7566C219.638 51.2734 227.138 53.6391 235.242 56.8354C239.509 58.4655 243.619 60.4788 247.523 62.8504C251.84 65.4267 255.59 68.8513 258.547 72.9174C261.593 77.3581 263.487 82.4868 264.058 87.8418C264.562 93.4581 264.351 99.1157 263.429 104.679C262.674 110.392 261.642 116.18 261.189 122.12C260.598 128.143 261.24 134.223 263.077 139.989C265.317 145.868 268.515 151.336 272.54 156.171C276.491 161.205 280.921 166.037 285.124 171.272C289.217 176.48 292.399 182.343 294.536 188.612C296.75 194.783 296.678 201.542 294.335 207.664C291.818 213.654 287.288 218.058 284.117 223.016C282.461 225.394 281.328 228.096 280.795 230.944C280.368 233.706 280.762 236.533 281.927 239.073C284.604 243.885 288.468 247.932 293.152 250.826C297.581 253.922 302.137 256.615 306.164 259.862C313.521 265.909 319.589 273.371 324.007 281.808C330.519 294.034 333.417 307.861 332.363 321.673C332.363 322.881 332.136 324.039 332.036 325.121C331.935 326.203 331.683 327.159 331.532 328.091C331.285 329.652 330.949 331.198 330.526 332.721C330.173 333.904 329.922 334.81 329.72 335.515C329.646 335.833 329.545 336.145 329.418 336.446Z" fill="#455A64"/>
<path d="M341.927 288.678C341.927 288.678 342.153 287.495 342.203 285.205C342.204 281.869 341.51 278.569 340.165 275.516C338.026 270.697 335.043 266.299 331.356 262.529C327.178 257.974 321.692 253.469 316.583 247.429C310.877 240.866 307.567 232.561 307.196 223.872C306.642 214.585 308.378 204.82 309.511 194.602C310.146 189.401 310.29 184.151 309.939 178.923C309.51 173.48 308.175 168.146 305.988 163.143C301.709 152.849 294.712 143.412 289.754 132.464C288.513 129.744 287.453 126.944 286.583 124.083C285.788 121.239 285.175 118.347 284.746 115.425C283.89 109.662 283.614 103.924 283.286 98.3114C283.06 92.8302 282.505 87.3675 281.625 81.9526C280.763 76.8188 279.063 71.8617 276.592 67.2799C271.528 58.9823 264.274 52.242 255.627 47.8003C248.144 43.8195 240.35 40.4528 232.322 37.7333C224.998 35.0655 218.379 32.5488 212.742 29.9313C207.9 27.7201 203.281 25.0485 198.95 21.9533C196.235 19.9658 193.707 17.7333 191.4 15.2839C190.62 14.4282 190.066 13.7487 189.688 13.2956C189.311 12.8426 189.135 12.6161 189.16 12.5909C189.386 12.7833 189.597 12.9937 189.789 13.2201L191.576 15.1077C193.924 17.4452 196.448 19.5992 199.126 21.5506C203.492 24.5257 208.117 27.1031 212.943 29.2518C218.581 31.7686 225.2 34.2853 232.549 36.8021C240.639 39.528 248.5 42.8943 256.055 46.8691C264.905 51.3714 272.335 58.2355 277.523 66.7011C280.136 71.3975 281.931 76.5036 282.833 81.8016C283.76 87.2628 284.34 92.7771 284.57 98.3114C285.199 109.461 285.728 121.289 290.962 132.011C295.82 142.782 302.816 152.145 307.17 162.74C309.4 167.865 310.761 173.326 311.197 178.898C311.525 184.204 311.356 189.529 310.694 194.804C309.536 205.072 307.774 214.761 308.177 223.872C308.49 232.346 311.666 240.464 317.187 246.9C322.22 252.84 327.606 257.395 331.784 262.001C335.484 265.873 338.451 270.384 340.542 275.314C341.862 278.431 342.48 281.799 342.354 285.18C342.315 286.027 342.205 286.868 342.027 287.697C342.002 288.402 341.927 288.704 341.927 288.678Z" fill="white"/>
<path d="M58.0625 359.349C52.5178 361.951 47.931 366.229 44.9502 371.58C36.5694 386.681 19.2542 418.643 12.2324 439.532C2.79463 467.468 -11.9032 513.978 20.8901 557.82C46.0576 591.368 98.0284 584.069 121.182 578.759C128.334 577.097 134.613 572.837 138.8 566.804L224.52 442.653C227.179 438.804 228.879 434.375 229.478 429.735C230.077 425.095 229.558 420.38 227.965 415.981C226.372 411.583 223.75 407.629 220.318 404.45C216.886 401.27 212.744 398.957 208.237 397.704L186.744 391.664C183.271 390.695 180.084 388.899 177.457 386.429L127.877 345.104C123.576 341.525 118.341 339.25 112.79 338.545C107.239 337.841 101.603 338.737 96.5435 341.127L58.0625 359.349Z" fill="#455A64"/>
<path d="M191.098 383.484C190.603 382.994 189.954 382.692 189.261 382.629C185.528 381.886 181.673 382.038 178.011 383.072C174.349 384.106 170.984 385.994 168.192 388.579C165.4 391.165 163.26 394.375 161.949 397.948C160.637 401.52 160.19 405.352 160.645 409.13L180.15 416.303C183.799 406.437 187.876 396.798 191.525 386.932C191.733 386.365 191.803 385.756 191.729 385.157C191.654 384.557 191.438 383.984 191.098 383.484Z" fill="#D39688"/>
<path d="M89.9495 364.684C93.2703 359.82 98.192 356.274 103.858 354.665C109.523 353.055 115.574 353.484 120.956 355.876C127.6 358.82 132.13 365.238 135.427 373.719C145.293 399.038 145.972 406.437 145.972 406.437L152.315 390.053L184.403 404.575C184.403 404.575 166.786 464.071 151.132 468.299C147.16 469.276 143.029 469.413 139.001 468.701C132.713 467.64 126.735 465.211 121.49 461.583C116.245 457.956 111.861 453.221 108.649 447.712L92.7683 411.471" fill="#455A64"/>
<path d="M92.7431 411.37C92.8729 411.559 92.9826 411.762 93.0703 411.974L93.9512 413.786C94.7063 415.497 95.7884 417.863 97.1726 420.883L109.001 447.435C112.986 454.032 118.603 459.493 125.31 463.29C129.109 465.441 133.231 466.962 137.516 467.795C142.059 468.818 146.781 468.732 151.283 467.544C153.488 466.667 155.443 465.258 156.971 463.441C158.666 461.595 160.191 459.599 161.526 457.477C164.366 453.073 166.889 448.472 169.076 443.71C173.693 433.611 177.735 423.259 181.182 412.704C182.113 409.91 183.019 407.117 183.875 404.348L184.227 405.128L152.138 390.582L152.969 390.229L146.602 406.588L145.821 408.602L145.444 406.437C144.118 400.056 142.326 393.781 140.083 387.662C137.994 381.773 135.956 376.11 133.791 370.976C131.817 366.136 128.669 361.863 124.63 358.543C121.015 355.951 116.74 354.433 112.298 354.164C105.921 353.788 99.6345 355.818 94.681 359.852C92.9695 361.336 91.3945 362.97 89.9747 364.735L90.2012 364.332L90.9563 363.275C91.9833 361.918 93.1472 360.669 94.4294 359.55C96.5177 357.765 98.8802 356.329 101.426 355.297C104.862 353.892 108.566 353.265 112.273 353.46C116.885 353.646 121.344 355.167 125.108 357.839C129.289 361.171 132.568 365.497 134.647 370.422C136.912 375.657 138.951 381.244 141.065 387.184C142.122 390.129 143.154 393.199 144.11 396.345C145.179 399.57 146.02 402.867 146.627 406.211L145.318 406.135C147.382 400.85 149.496 395.389 151.66 389.751L151.887 389.147L152.516 389.399L184.604 403.92L185.133 404.147L184.957 404.701C184.126 407.494 183.22 410.288 182.289 413.106C178.816 423.699 174.74 434.085 170.083 444.213C167.899 449.026 165.376 453.677 162.533 458.131C161.149 460.306 159.574 462.352 157.826 464.247C156.135 466.201 153.993 467.713 151.585 468.651C146.893 469.893 141.968 469.971 137.239 468.878C132.821 468.001 128.572 466.421 124.655 464.196C117.83 460.274 112.141 454.646 108.146 447.863C103.263 436.537 99.3873 427.477 96.6692 421.16C95.3857 418.09 94.3538 415.674 93.6491 413.962C93.3219 413.207 93.0954 412.578 92.8941 412.1C92.8238 411.861 92.7733 411.617 92.7431 411.37Z" fill="#263238"/>
<path d="M139.63 423.475C141.073 417.122 143.367 410.993 146.451 405.254C145.008 411.607 142.714 417.736 139.63 423.475Z" fill="#263238"/>
<path d="M12.0813 489.968C25.3461 480.887 41.3827 476.762 57.3829 478.315L12.0813 489.968Z" fill="#455A64"/>
<path d="M57.4081 478.315C57.4081 478.517 54.7151 478.315 50.4114 478.441C44.8319 478.628 39.2884 479.412 33.8763 480.782C28.4712 482.189 23.2382 484.19 18.2726 486.747C14.4471 488.684 12.2071 490.144 12.0813 489.968C13.8098 488.374 15.7389 487.012 17.8196 485.916C22.7533 483.091 28.0437 480.941 33.5493 479.523C39.0538 478.099 44.7265 477.43 50.4114 477.535C52.7691 477.456 55.1259 477.718 57.4081 478.315Z" fill="#263238"/>
<path d="M175.519 512.443C175.088 511.978 174.693 511.482 174.336 510.958L171.039 506.679C167.038 501.401 162.51 496.543 157.524 492.183C149.908 485.969 141.668 480.563 132.936 476.05C123.171 470.765 112.525 464.7 100.822 459.515C89.8542 454.569 78.2758 451.107 66.3928 449.222C56.6905 447.677 46.8702 446.994 37.0474 447.183C28.6415 447.309 21.947 447.963 17.1904 448.467L11.8045 449.071C11.1787 449.157 10.5485 449.208 9.91693 449.222C10.5206 449.013 11.145 448.87 11.7793 448.794C12.9873 448.593 14.7994 448.265 17.14 447.938C23.7313 447.011 30.3688 446.448 37.0222 446.252C46.9126 445.933 56.8114 446.523 66.594 448.014C78.5883 449.873 90.2785 453.335 101.351 458.307C113.129 463.542 123.775 469.633 133.54 474.993C142.295 479.605 150.537 485.131 158.128 491.478C163.119 495.921 167.586 500.92 171.442 506.377C172.826 508.265 173.959 509.775 174.538 510.807C174.924 511.314 175.254 511.863 175.519 512.443Z" fill="white"/>
<path d="M94.5049 419.147C93.5488 419.184 92.5919 419.091 91.661 418.87L83.9346 417.813C77.391 416.982 68.3559 416.101 58.314 415.825C48.2722 415.548 39.2119 416.026 32.6431 416.529L24.8917 417.209C23.9418 417.345 22.9807 417.388 22.0225 417.335C22.9239 417.01 23.8623 416.798 24.8161 416.705C26.6281 416.353 29.2959 416.001 32.5677 415.623C49.7109 413.717 67.0335 414.148 84.0604 416.907C87.307 417.435 89.9497 417.964 91.7366 418.366C92.6849 418.525 93.6131 418.787 94.5049 419.147Z" fill="white"/>
<path d="M92.7684 382.201C90.2239 381.75 87.704 381.17 85.2181 380.464C79.2105 379.078 73.0996 378.186 66.9464 377.796C60.7946 377.44 54.6239 377.6 48.4987 378.275C43.7924 378.778 40.9485 379.307 40.9485 379.105C41.5809 378.804 42.2489 378.584 42.9367 378.451C44.2202 378.124 46.133 377.721 48.4736 377.343C54.6426 376.403 60.8935 376.116 67.1226 376.488C73.3536 376.867 79.528 377.896 85.5453 379.558C87.3607 380.055 89.1499 380.643 90.906 381.32C92.114 381.798 92.7935 382.1 92.7684 382.201Z" fill="white"/>
<path d="M138.624 382.704C138.624 382.931 135.779 382.704 131.249 383.157C119.347 384.153 107.985 388.567 98.5317 395.867C94.9327 398.66 92.9446 400.699 92.7936 400.523C92.6426 400.346 93.171 399.919 94.0267 398.937C95.245 397.58 96.5569 396.31 97.9528 395.137C107.276 387.301 118.93 382.77 131.098 382.251C132.928 382.153 134.762 382.195 136.585 382.377C137.278 382.37 137.967 382.48 138.624 382.704Z" fill="white"/>
<path d="M140.008 417.964C134.374 421.528 128.954 425.419 123.775 429.616C118.879 434.134 114.241 438.924 109.882 443.962C110.688 442.133 111.766 440.436 113.078 438.928C118.934 431.342 126.262 425.015 134.622 420.33C136.293 419.284 138.107 418.488 140.008 417.964Z" fill="white"/>
<path d="M146.677 469.633C145.34 461.145 144.45 452.593 144.009 444.012C142.902 429.818 142.298 418.291 142.65 418.266C143.97 426.756 144.861 435.307 145.318 443.886C146.425 458.081 147.029 469.608 146.677 469.633Z" fill="white"/>
<path d="M177.054 423.576C172.501 419.799 167.691 416.343 162.659 413.232C157.399 410.515 151.948 408.185 146.35 406.261C148.118 406.279 149.871 406.593 151.534 407.192C159.779 409.495 167.344 413.761 173.581 419.625C174.95 420.74 176.124 422.075 177.054 423.576Z" fill="white"/>
<path d="M204.789 460.295C204.512 460.572 198.17 454.306 189.361 447.863C180.553 441.42 172.7 437.242 172.876 436.865C174.759 437.461 176.554 438.308 178.212 439.381C182.354 441.613 186.332 444.136 190.116 446.932C193.92 449.717 197.528 452.761 200.913 456.042C202.388 457.282 203.691 458.712 204.789 460.295Z" fill="white"/>
<path d="M24.7656 482.141C24.7656 482.519 19.5057 481.537 13.0628 481.663C6.61995 481.789 1.48574 482.921 1.38507 482.544C8.90741 479.762 17.152 479.62 24.7656 482.141Z" fill="white"/>
<path d="M152.868 543.826C152.868 543.826 151.862 542.165 149.924 539.296C147.138 535.277 143.876 531.609 140.209 528.374C134.737 523.616 128.713 519.535 122.265 516.218C115.017 512.392 106.661 508.944 97.8774 505.345C80.1092 498.399 65.4113 489.138 53.7335 484.96C49.1613 483.221 44.4336 481.924 39.6146 481.084C36.1918 480.48 34.2539 480.43 34.2539 480.304C34.7217 480.243 35.1955 480.243 35.6633 480.304C37.0027 480.308 38.3402 480.408 39.665 480.606C44.5697 481.251 49.3887 482.432 54.0355 484.129C65.9649 488.131 80.6879 497.241 98.3807 504.263C106.708 507.521 114.865 511.2 122.818 515.287C129.328 518.71 135.382 522.938 140.838 527.87C144.508 531.197 147.708 535.007 150.352 539.196C151.258 540.706 151.937 541.889 152.315 542.719C152.529 543.072 152.714 543.443 152.868 543.826Z" fill="white"/>
<path d="M130.922 572.794C130.922 572.794 130.494 572.593 129.765 572.064L126.543 569.749C125.184 568.717 123.498 567.484 121.51 566.15C119.521 564.816 117.256 563.155 114.639 561.544C109.605 558.222 103.213 554.548 96.04 550.823C88.2184 546.857 80.1865 543.32 71.9799 540.227C63.736 537.25 55.3341 534.729 46.8124 532.677C38.935 530.84 31.7119 529.531 25.6968 528.726C22.6767 528.248 19.9084 528.021 17.4923 527.744C15.0763 527.468 12.9873 527.291 11.2759 527.191L7.34977 526.864C6.89004 526.854 6.4334 526.787 5.99078 526.662C6.44091 526.59 6.89965 526.59 7.34977 526.662H11.3011C13.0376 526.662 15.1265 526.662 17.5678 526.989C20.009 527.317 22.7775 527.367 25.8228 527.795C32.9712 528.646 40.0697 529.872 47.0892 531.469C64.3096 535.411 80.9488 541.561 96.5938 549.766C102.976 553.104 109.168 556.793 115.142 560.814C117.659 562.45 119.949 564.137 121.937 565.571C123.926 567.006 125.587 568.289 126.971 569.371L130.016 571.888C130.347 572.16 130.65 572.464 130.922 572.794Z" fill="white"/>
<path d="M137.768 354.592C133.552 353.45 129.237 352.709 124.882 352.377C120.517 352.497 116.171 353.002 111.896 353.887C115.883 351.722 120.407 350.744 124.932 351.069C129.461 350.979 133.919 352.203 137.768 354.592Z" fill="white"/>
<path d="M213.27 273.276C204.235 253.872 187.348 242.471 162.457 241.54C154.631 241.039 146.79 242.25 139.479 245.088C123.125 252.062 109.756 264.585 101.728 280.449C93.9512 297.034 95.6625 317.017 94.8069 334.055L97.3236 334.206C118.439 344.072 129.437 357.26 146.274 374.877C150.628 379.432 168.548 381.597 175.821 382.125C182.163 382.553 189.11 379.03 194.244 375.28C211.483 362.696 211.458 351.144 216.894 330.507C222.331 309.869 222.331 292.655 213.27 273.276Z" fill="#D39688"/>
<path d="M193.665 334.559C194.344 334.232 196.484 337.503 200.712 339.039C204.94 340.574 208.765 339.592 209.042 340.272C209.319 340.951 208.337 341.329 206.525 341.807C204.238 342.417 201.818 342.294 199.604 341.455C197.419 340.653 195.543 339.182 194.244 337.252C193.438 335.792 193.338 334.71 193.665 334.559Z" fill="#263238"/>
<path d="M150.603 320.389C151.333 320.138 152.994 323.712 156.945 325.826C160.897 327.94 164.848 327.512 165.024 328.342C165.024 328.669 164.194 329.274 162.507 329.5C160.159 329.769 157.785 329.303 155.712 328.166C153.661 327.073 152.013 325.353 151.006 323.259C150.352 321.572 150.351 320.566 150.603 320.389Z" fill="#263238"/>
<path d="M166.71 302.747C166.182 303.577 163.564 302.747 160.469 302.747C157.373 302.747 154.705 303.2 154.227 302.344C154.026 301.916 154.479 301.161 155.612 300.457C157.148 299.607 158.89 299.197 160.645 299.274C162.385 299.313 164.078 299.845 165.528 300.809C166.534 301.564 166.937 302.369 166.71 302.747Z" fill="#263238"/>
<path d="M212.565 318.552C211.559 319.106 208.816 318.3 206.4 316.74C203.983 315.18 202.901 313.468 203.883 312.889C204.864 312.311 207.658 313.141 210.049 314.702C212.44 316.262 213.597 318.049 212.565 318.552Z" fill="#263238"/>
<path d="M169.68 355.221C169.68 355.498 168.925 355.75 167.767 355.498C166.223 355.183 164.86 354.281 163.967 352.981C163.077 351.66 162.726 350.048 162.986 348.476C163.212 347.293 163.715 346.74 163.967 346.815C164.219 346.891 164.118 349.533 165.704 351.849C167.289 354.164 169.731 354.668 169.68 355.221Z" fill="#263238"/>
<path d="M181.282 334.181C181.559 334.181 181.761 335.314 181.811 337.076C181.811 337.982 181.811 339.013 181.811 340.196C181.811 340.767 181.811 341.371 181.811 342.008C181.841 342.747 181.756 343.486 181.559 344.198C181.441 344.648 181.229 345.069 180.939 345.433C180.649 345.797 180.286 346.096 179.873 346.312C179.098 346.712 178.208 346.828 177.356 346.639C176.68 346.489 176.05 346.179 175.519 345.733C175.084 345.389 174.702 344.982 174.387 344.525C173.355 342.864 173.229 341.757 173.455 341.631C173.682 341.505 174.387 342.436 175.519 343.569C176.084 344.187 176.852 344.58 177.683 344.676C178.083 344.711 178.484 344.632 178.841 344.45C179.167 344.242 179.401 343.918 179.496 343.544C179.632 342.983 179.708 342.409 179.722 341.832C179.722 341.203 179.848 340.599 179.898 339.995C180.049 338.837 180.2 337.78 180.351 336.925C180.552 335.238 181.005 334.156 181.282 334.181Z" fill="#263238"/>
<path d="M196.207 248.914C184.519 241.918 170.915 238.807 157.348 240.03C139.454 241.288 121.585 249.065 110.562 263.184C103.86 272.215 99.3847 282.7 97.4999 293.787C95.6456 304.817 94.6694 315.976 94.5806 327.159C94.318 328.385 94.3871 329.659 94.7809 330.849C95.1746 332.039 95.8786 333.102 96.8203 333.929C97.8219 334.588 98.9943 334.938 100.193 334.938C101.391 334.938 102.564 334.588 103.565 333.929C107.391 331.413 108.221 326.732 107.718 322.478C107.265 318.804 105.981 315.255 105.528 311.581C104.876 307.462 105.772 303.248 108.045 299.752C109.377 297.759 111.376 296.307 113.682 295.657C115.989 295.006 118.452 295.2 120.629 296.203C122.319 297.166 123.572 298.744 124.127 300.608C125.763 305.817 121.61 307.629 120 311.002C118.993 313.141 120 316.589 122.516 316.312C123.699 316.161 127.273 317.898 128.003 316.967C131.065 312.96 133.337 308.408 134.697 303.552C135.88 299.5 134.093 292.781 134.697 288.578C134.855 286.495 135.431 284.465 136.391 282.61C137.351 280.755 138.675 279.112 140.285 277.781C144.563 274.887 150.352 275.793 155.108 273.679C159.236 271.866 162.482 267.764 166.987 267.613C172.6 267.437 176.274 273.276 181.182 275.944C188.329 279.819 197.515 276.623 205.04 279.668C206.995 280.674 209.003 281.573 211.055 282.361C213.195 282.94 219.26 290.667 220.569 288.88C219.21 275.264 207.633 256.137 196.207 248.914Z" fill="#263238"/>
<path d="M123.875 307.252C124.445 306.064 124.739 304.762 124.735 303.444C124.732 302.126 124.431 300.827 123.855 299.641C123.279 298.456 122.443 297.416 121.41 296.598C120.376 295.781 119.172 295.207 117.885 294.92C113.481 294.064 108.372 295.423 104.521 303.452C96.2665 320.717 112.198 323.586 112.474 323.133C116.906 318.322 120.734 312.989 123.875 307.252Z" fill="#D39688"/>
<path d="M114.135 316.388C114.135 316.388 113.733 316.388 113.104 316.388C112.677 316.373 112.257 316.275 111.868 316.097C111.48 315.92 111.13 315.668 110.839 315.356C109.328 313.821 109.178 310.322 110.587 307.051C111.251 305.552 112.24 304.22 113.481 303.15C113.903 302.689 114.43 302.337 115.017 302.122C115.604 301.907 116.234 301.837 116.854 301.916C117.24 301.992 117.589 302.198 117.841 302.501C118.093 302.803 118.233 303.184 118.238 303.578C118.238 304.182 117.961 304.484 118.036 304.559C118.112 304.635 118.54 304.559 118.741 303.653C118.861 303.18 118.807 302.68 118.59 302.244C118.285 301.657 117.76 301.214 117.13 301.01C116.356 300.821 115.546 300.829 114.776 301.036C114.006 301.243 113.301 301.641 112.726 302.193C111.264 303.322 110.113 304.803 109.379 306.497C107.818 310.02 108.045 314.047 110.184 316.061C110.587 316.41 111.062 316.668 111.575 316.816C112.088 316.964 112.626 316.998 113.154 316.916C113.909 316.79 114.186 316.438 114.135 316.388Z" fill="#BF654E"/>
<path d="M155.536 347.545C155.335 347.545 155.712 345.909 155.536 343.342C155.442 340.006 154.426 336.76 152.6 333.966C150.774 331.172 148.21 328.938 145.192 327.512C142.877 326.379 141.266 326.077 141.316 325.876C142.779 325.736 144.252 326.006 145.57 326.656C148.901 327.951 151.744 330.257 153.698 333.249C155.652 336.242 156.621 339.771 156.467 343.342C156.561 344.803 156.238 346.261 155.536 347.545Z" fill="#BF654E"/>
<path d="M175.167 240.457C174.741 240.518 174.309 240.518 173.883 240.457L170.335 240.08C165.965 239.705 161.573 239.663 157.197 239.954C150.734 240.427 144.375 241.843 138.321 244.157C130.931 247.082 124.083 251.225 118.062 256.414C114.912 259.025 112.089 262.008 109.656 265.298C107.412 268.384 105.441 271.659 103.766 275.088C101.018 280.979 98.9333 287.158 97.5501 293.511C96.603 297.791 95.8722 302.117 95.3606 306.472C95.2348 308.085 95.0163 309.69 94.7062 311.279C94.6453 310.861 94.6453 310.438 94.7062 310.02C94.7062 309.19 94.7062 307.982 94.8824 306.421C95.1978 302.017 95.7946 297.637 96.6692 293.309C97.9361 286.851 99.9637 280.566 102.709 274.585C104.385 271.058 106.373 267.689 108.649 264.518C111.134 261.147 114.015 258.088 117.231 255.407C123.366 250.131 130.365 245.95 137.919 243.05C144.095 240.738 150.587 239.38 157.172 239.023C161.592 238.808 166.023 238.993 170.41 239.577L173.959 240.206C174.371 240.233 174.778 240.318 175.167 240.457Z" fill="#455A64"/>
<path d="M3.9523 522.359C3.9523 522.359 26.8294 545.815 36.3931 541.335C45.9567 536.855 67.7015 511.134 76.2081 510.681C82.9896 510.077 89.7185 508.984 96.3421 507.409L126.795 505.471C126.795 505.471 123.498 529.934 115.243 528.852C106.988 527.77 93.8003 532.476 93.8003 532.476L140.536 535.546L151.534 561.444C151.534 561.444 115.771 586.385 111.468 587.089C107.164 587.794 53.5826 596.603 40.5458 584.749C27.509 572.895 11.729 556.36 7.17366 541.687C2.61835 527.015 3.9523 522.359 3.9523 522.359Z" fill="#C78976"/>
<path d="M146.451 485.815L65.1597 392.167L24.8917 414.818C24.8917 414.818 42.1817 450.757 65.8391 490.069C93.1458 535.37 129.463 584.522 166.509 575.638C227.842 560.915 313.94 376.085 313.94 376.085C313.94 376.085 313.487 278.586 284.117 274.434C284.117 274.434 247.07 259.333 227.565 299.274C208.061 339.215 157.751 482.317 146.451 485.815Z" fill="#C78976"/>
<path d="M24.9671 414.717C24.9671 414.717 11.729 392.066 12.2324 380.917C12.7357 369.768 43.8679 309.114 46.0323 308.309C48.3795 307.689 50.7821 307.301 53.2051 307.151C53.2051 307.151 58.2385 304.131 61.9382 301.413C65.6378 298.695 101.074 280.801 101.074 280.801L96.317 301.489C96.317 301.489 76.8373 313.921 81.9463 322.755C87.0553 331.589 105.755 322.126 108.297 320.792C110.839 319.458 134.118 306.95 138.498 308.989C142.877 311.027 146.048 318.804 137.34 327.587C128.632 336.371 111.216 336.547 105.83 343.091C100.444 349.634 94.6559 359.298 83.5067 364.332C79.1029 366.361 74.8176 368.638 70.6714 371.152C67.7398 372.911 65.4853 375.605 64.2709 378.801C63.0565 381.996 62.9529 385.508 63.9767 388.77L65.0589 392.192L24.9671 414.717Z" fill="#C78976"/>
<path d="M279.209 265.927C279.209 265.927 238.941 267.789 229.73 287.42C220.518 307.051 186.442 386.001 186.442 386.001L295.518 426.269C295.518 426.269 313.965 392.444 316.835 373.216C319.704 353.988 316.457 270.231 279.209 265.927Z" fill="#E51284"/>
<path d="M264.914 267.714C264.914 267.714 264.008 267.966 262.397 268.57C259.975 269.428 257.654 270.551 255.476 271.917C247.633 277.219 240.812 283.895 235.342 291.623C226.935 302.987 219.549 315.073 213.27 327.738C206.047 341.908 199.076 357.939 192.13 374.978L189.613 380.791L188.38 383.61L187.725 384.994L187.348 385.699L187.096 386.077L186.895 386.303C186.77 386.416 186.615 386.488 186.449 386.51C186.283 386.533 186.113 386.504 185.964 386.429L186.517 385.246L267.053 415.17L291.013 424.23L297.481 426.747L299.142 427.427L299.696 427.704C299.487 427.686 299.283 427.635 299.091 427.553L297.38 426.999L290.862 424.709L266.751 416.026L186.215 386.504L186.492 385.825C186.442 385.652 186.346 385.495 186.215 385.372L186.366 385.12L186.693 384.516L187.348 383.182C187.725 382.251 188.153 381.32 188.556 380.389L191.073 374.575C198.019 357.562 205.041 341.455 212.339 327.285C218.641 314.617 226.08 302.546 234.562 291.22C240.18 283.455 247.206 276.813 255.275 271.64C257.515 270.305 259.906 269.24 262.397 268.469C263.039 268.254 263.695 268.086 264.36 267.966C264.531 267.853 264.718 267.768 264.914 267.714Z" fill="#263238"/>
<path d="M173.933 572.87C173.518 573.128 173.08 573.347 172.625 573.524C171.313 574.072 169.957 574.51 168.573 574.833C163.438 575.862 158.177 576.108 152.969 575.563C145.224 574.948 137.636 573.043 130.52 569.925C122.121 565.418 114.716 559.263 108.75 551.83C105.478 547.979 102.508 544.078 99.7146 540.253C96.921 536.427 94.4293 532.702 91.9629 529.028L78.9262 510.001L70.2182 497.09L67.9028 493.542C67.6182 493.139 67.3738 492.709 67.173 492.258C67.5394 492.593 67.8609 492.973 68.1294 493.391L70.6462 496.813L79.6812 509.397L92.9445 528.248L100.746 539.422C103.54 543.222 106.51 547.098 109.756 550.898C114.779 557.813 121.265 563.537 128.751 567.66C136.237 571.784 144.54 574.207 153.07 574.757C158.194 575.36 163.378 575.25 168.472 574.43C172.046 573.625 173.883 572.719 173.933 572.87Z" fill="#BF654E"/>
<path d="M166.182 514.859C165.598 513.208 165.103 511.528 164.697 509.825C163.388 505.805 161.497 501.997 159.085 498.525C156.691 495.045 153.838 491.904 150.603 489.188C148.086 487.099 146.35 486.067 146.451 485.891C148.169 486.413 149.769 487.268 151.157 488.408C154.677 490.977 157.725 494.136 160.167 497.745C162.666 501.322 164.499 505.32 165.578 509.548C166.112 511.264 166.317 513.066 166.182 514.859Z" fill="#BF654E"/>
</svg>
