<svg width="1000" height="1000" viewBox="0 0 1000 1000" fill="none" xmlns="http://www.w3.org/2000/svg">
<path d="M273 72H49V306H273V72Z" fill="#E0E0E0"/>
<path d="M258 72H34V306H258V72Z" fill="#EBEBEB"/>
<path d="M228 104H64V274H228V104Z" fill="#FAFAFA"/>
<path d="M64 275C62.8 276.722 61.4267 278.314 59.9022 279.748C57.3727 282.545 53.5531 286.317 49.43 290.475C45.3069 294.632 41.4874 298.302 38.7049 300.92C37.2788 302.44 35.7021 303.807 34 305C35.1953 303.282 36.5692 301.699 38.0979 300.278C40.6274 297.481 44.4469 293.683 48.5953 289.551C52.7437 285.419 56.5379 281.698 59.3204 279.055C60.7525 277.558 62.3192 276.201 64 275Z" fill="#E0E0E0"/>
<path d="M228 275C229.653 276.205 231.183 277.578 232.565 279.098C235.269 281.627 238.94 285.447 242.934 289.57C246.928 293.693 250.5 297.513 253.056 300.295C254.507 301.739 255.827 303.313 257 305C255.339 303.805 253.809 302.431 252.435 300.902C249.731 298.373 246.06 294.553 242.041 290.405C238.022 286.256 234.475 282.462 231.92 279.68C230.473 278.247 229.161 276.681 228 275Z" fill="#E0E0E0"/>
<path d="M227 104C228.219 102.351 229.599 100.822 231.12 99.4354C233.647 96.7314 237.438 93.0599 241.583 89.0659C245.728 85.0718 249.519 81.6236 252.299 78.9444C253.735 77.4857 255.309 76.1649 257 75C255.786 76.6458 254.415 78.1743 252.906 79.5646C250.378 82.2686 246.562 85.9401 242.417 89.9589C238.272 93.9778 234.481 97.4012 231.676 100.08C230.258 101.541 228.692 102.855 227 104Z" fill="#E0E0E0"/>
<path d="M64 105C62.2595 103.825 60.6404 102.481 59.1662 100.99C56.3785 98.4518 52.5933 94.6447 48.4757 90.4822C44.3581 86.3198 40.6752 82.5127 38.0665 79.7208C36.5441 78.2967 35.1807 76.714 34 75C35.7046 76.2092 37.2813 77.5868 38.7059 79.1117C41.4936 81.6497 45.2788 85.4822 49.3965 89.6447C53.5141 93.8071 57.2225 97.6142 59.8568 100.431C61.3916 101.81 62.7799 103.341 64 105Z" fill="#E0E0E0"/>
<path d="M227.446 274C227.446 274 227.446 273.723 227.446 273.195C227.446 272.667 227.446 271.837 227.446 270.681C227.446 268.568 227.446 265.5 227.446 261.502C227.446 253.43 227.446 241.686 227.32 226.774C227.32 196.924 227.144 154.375 227.043 103.553L227.572 104.081H64.3274L64.9569 103.478C64.9569 166.044 64.9569 224.561 64.9569 273.899L64.4281 273.371L182.776 273.648H215.989H224.752H227.068H224.878H216.19H183.128L64.5288 273.925H64V274C64 224.661 64 166.144 64 103.578V103H64.6295H227.446H228V103.528C228 154.602 227.799 197.251 227.748 227.176C227.748 242.063 227.622 253.757 227.597 261.779C227.597 265.752 227.597 268.769 227.597 270.882C227.597 271.862 227.597 272.642 227.597 273.195C227.597 273.749 227.446 274 227.446 274Z" fill="#E0E0E0"/>
<path d="M107.061 175C107.061 175 103.587 217 149 217C149 194.598 130.555 176.902 107.061 175Z" fill="#EBEBEB"/>
<path d="M191 175.061C191 175.061 149 171.589 149 217C171.402 217 189.098 198.666 191 175.061Z" fill="#EBEBEB"/>
<path d="M147.471 152C147.471 152 113.713 182.834 149.318 217C165.864 199.166 164.461 171.112 147.471 152Z" fill="#E0E0E0"/>
<path d="M180.298 244.333C181.356 244.84 182.363 245.449 183.304 246.15C185.074 247.338 187.486 249.025 190.099 250.902C192.713 252.779 195.03 254.668 196.669 256.034C197.601 256.731 198.453 257.528 199.211 258.41C198.202 257.848 197.247 257.191 196.36 256.45L189.695 251.496L183.019 246.53C182.037 245.896 181.125 245.159 180.298 244.333Z" fill="#E0E0E0"/>
<path d="M354.376 244.653C351.448 247.211 348.369 249.591 345.157 251.781C342.078 254.171 338.861 256.376 335.522 258.387C338.454 255.833 341.532 253.453 344.741 251.259C347.822 248.872 351.039 246.667 354.376 244.653Z" fill="#E0E0E0"/>
<path d="M334.845 361.018C338.333 363.677 341.68 366.516 344.872 369.524C348.195 372.387 351.367 375.42 354.376 378.612C350.897 375.931 347.558 373.072 344.373 370.047C341.042 367.205 337.861 364.192 334.845 361.018Z" fill="#E0E0E0"/>
<path d="M180.298 378.66C183.166 375.596 186.204 372.697 189.398 369.975C192.432 367.079 195.624 364.354 198.962 361.814C196.092 364.872 193.054 367.767 189.862 370.486C186.823 373.38 183.631 376.109 180.298 378.66Z" fill="#E0E0E0"/>
<path d="M921.977 161.31C922.407 141.988 916.892 122.999 906.175 106.903C896.094 91.0809 881.578 77.5733 864.063 70.7315C849.081 64.8372 832.572 64.0305 817.085 68.4359C801.598 72.8413 787.995 82.2137 778.377 95.1055C772.87 80.5948 762.87 68.215 749.831 59.765C736.792 51.315 721.393 47.2351 705.872 48.1183C687.072 49.1496 669.153 57.4755 654.536 69.3229C639.288 81.2388 628.08 97.5456 622.429 116.033C615.927 139.175 616.33 165.712 625.327 188.023C634.803 211.567 653.049 232.244 672.329 248.619C705.091 276.288 748.211 311 748.211 311C748.211 311 793.297 287.406 832.939 271.458C856.528 261.975 880.217 247.99 896.598 228.697C912.249 210.259 920.893 185.206 921.977 161.31Z" fill="#EBEBEB"/>
<path d="M624.277 27.9646C623.007 22.2055 619.982 16.9678 615.609 12.9553C611.475 8.8796 606.162 6.17012 600.402 5.20054C597.329 4.79458 594.205 5.00637 591.217 5.82318C588.229 6.63999 585.439 8.04493 583.016 9.95348C580.148 12.2455 577.887 15.1898 576.426 18.5338C574.509 15.8143 572.019 13.5359 569.127 11.8547C566.435 10.3378 563.46 9.37214 560.382 9.01539C557.303 8.65865 554.183 8.91815 551.208 9.77837C545.632 11.5968 540.774 15.0966 537.319 19.7846C533.587 24.4127 531.392 30.0647 531.034 35.9696C530.7 43.4941 532.834 50.9243 537.117 57.1577C542.009 63.4392 548.352 68.4741 555.618 71.8418C567.429 77.6955 582.94 85 582.94 85C582.94 85 594.801 74.7687 605.572 67.214C612.241 62.7984 617.742 56.8714 621.615 49.9282C624.883 43.0831 625.817 35.3774 624.277 27.9646Z" fill="#F5F5F5"/>
<path d="M418.627 993.554C369.197 975.16 345.64 923.329 334.617 874.093C332.779 865.853 329.583 857.513 331.697 849.349C333.811 841.185 341.462 833.953 349.642 835.49C356.437 836.775 360.892 843.049 365.774 848.089C372.307 854.685 380.57 859.297 389.608 861.393C395.472 862.729 402.318 862.703 406.697 858.571C412.712 852.851 411.026 842.923 408.887 834.835C404.86 819.716 400.85 804.598 396.857 789.479C394.692 781.391 392.528 773.101 393.056 764.761C393.585 756.42 397.285 747.828 404.432 743.67C411.58 739.513 422.226 741.478 425.925 748.987C427.096 752.28 428.046 755.647 428.769 759.066C429.852 762.367 432.394 765.693 435.842 765.794C439.29 765.895 441.957 762.77 443.744 759.772C449.986 749.416 452.931 737.396 455.498 725.528C458.065 713.66 460.531 701.616 465.716 690.705C470.9 679.795 479.634 670.018 491.06 666.339C502.486 662.661 516.68 666.642 522.57 677.275C528.459 687.908 524.81 701.238 520.053 712.375C512.862 728.889 503.326 744.275 491.739 758.058C489.36 760.299 487.77 763.252 487.209 766.474C486.832 772.345 493.35 776.377 499.139 776.755C505.682 777.208 512.075 774.865 518.568 773.983C525.061 773.101 532.637 773.983 536.588 779.451C542.05 786.859 537.368 797.341 532.033 804.8C521.355 819.738 508.184 832.72 493.098 843.175C487.712 846.905 481.949 850.457 478.224 855.9C474.499 861.343 473.493 869.381 477.872 874.319C482.251 879.258 490.179 879.183 496.119 876.386C502.058 873.589 506.764 868.826 512.125 864.971C522.192 857.891 536.714 854.892 546.353 862.703C552.67 867.743 555.364 876.512 554.961 884.676C554.161 892.807 551.749 900.697 547.864 907.883C535.74 933.67 516.987 955.767 493.526 971.909C470.045 987.582 446.764 996.225 418.702 993.504" fill="#F5F5F5"/>
<path d="M424 960C425.203 931.269 428.026 902.632 432.455 874.226C433.577 866.658 434.699 859.09 435.797 851.849C436.894 844.609 438.042 837.243 439.538 830.179C442.498 816.624 446.186 803.241 450.587 790.092C454.702 777.479 459.066 765.773 463.207 754.774C467.347 743.775 471.487 733.658 475.677 724.501C482.065 710.131 489.571 696.296 498.123 683.127C501.166 678.486 503.635 674.954 505.331 672.582L507.277 669.883C507.48 669.559 507.723 669.263 508 669C507.84 669.351 507.639 669.681 507.401 669.984L505.581 672.759C503.96 675.282 501.59 678.763 498.622 683.455C490.266 696.716 482.897 710.588 476.575 724.955C472.534 734.062 468.519 744.203 464.404 755.228C460.289 766.252 455.999 777.933 451.934 790.546C447.589 803.623 443.951 816.93 441.034 830.406C439.538 837.419 438.54 844.634 437.318 852.001C436.096 859.367 435.124 866.809 433.976 874.352C429.552 902.701 426.704 931.278 425.447 959.949" fill="#E0E0E0"/>
<path d="M440 830C439.322 828.982 438.755 827.893 438.311 826.753C437.302 824.614 435.94 821.493 434.326 817.617C431.073 809.84 426.963 798.968 422.475 786.962C417.986 774.957 413.725 764.185 410.371 756.483C408.707 752.633 407.345 749.537 406.362 747.398C405.771 746.324 405.314 745.183 405 744C405.735 744.973 406.369 746.019 406.891 747.121C408.051 749.185 409.564 752.155 411.38 756.03C414.986 763.581 419.424 774.403 423.988 786.434C428.552 798.464 432.36 809.085 435.411 817.215C436.798 820.889 437.932 824.01 438.941 826.502C439.413 827.629 439.768 828.801 440 830Z" fill="#E0E0E0"/>
<path d="M539 784C537.717 784.646 536.378 785.173 534.999 785.577C532.482 786.503 528.607 787.804 523.976 789.606C514.716 793.085 502.083 798.341 488.418 804.622C474.753 810.904 462.624 817.411 453.992 822.141C449.638 824.644 446.191 826.571 443.8 827.948C442.594 828.737 441.323 829.424 440 830C441.067 829.048 442.231 828.209 443.473 827.497C445.788 825.946 449.16 823.768 453.539 821.24C462.07 816.235 474.149 809.628 487.864 803.171C499.547 797.633 511.507 792.696 523.7 788.38C528.38 786.728 532.231 785.577 534.898 784.826C536.237 784.425 537.61 784.149 539 784Z" fill="#E0E0E0"/>
<path d="M424 957C424 957 423.622 956.674 422.968 955.921L420.198 952.633C417.831 949.771 414.482 945.529 410.427 940.208C402.319 929.641 391.567 914.656 379.908 897.964C368.249 881.273 357.648 866.213 349.691 855.47L340.324 842.769L337.806 839.28C337.49 838.885 337.22 838.456 337 838C337.399 838.321 337.754 838.692 338.058 839.104C338.788 839.983 339.72 841.062 340.802 842.393C343.195 845.254 346.544 849.496 350.598 854.792C358.706 865.384 369.458 880.369 381.117 897.061C392.776 913.752 403.352 928.812 411.334 939.555L420.701 952.256C421.709 953.637 422.54 954.766 423.219 955.72C423.534 956.111 423.797 956.541 424 957Z" fill="#E0E0E0"/>
<path d="M551 877C550.629 877.356 550.214 877.662 549.764 877.911L546.082 880.44L532.49 889.142C521.015 896.478 505.304 906.85 487.929 918.208C470.553 929.566 454.716 939.837 443.09 946.945C437.265 950.487 432.524 953.32 429.22 955.192L425.412 957.342C424.98 957.636 424.503 957.858 424 958C424.371 957.644 424.786 957.338 425.236 957.089L428.918 954.686L442.51 945.984C453.985 938.648 469.721 928.276 487.097 916.918C504.472 905.56 520.284 895.289 531.91 888.206C537.735 884.64 542.476 881.806 545.78 879.934L549.613 877.784C550.034 877.455 550.501 877.19 551 877Z" fill="#E0E0E0"/>
<path d="M941.613 278.911C943.828 282.748 945.241 286.992 945.768 291.387C946.294 295.783 945.924 300.239 944.678 304.488C942.114 312.956 937.644 320.728 931.609 327.211C920.338 340.113 902.583 348.723 886.246 354C881.535 335.594 891.312 315.774 896.808 306.028C905.597 290.626 930.849 268.155 941.613 278.734" fill="#EBEBEB"/>
<path d="M884 386.76C885.96 382.259 889.09 378.352 893.072 375.438C897.054 372.523 901.745 370.703 906.669 370.165C911.587 369.703 916.548 370.212 921.265 371.662C925.983 373.112 930.362 375.474 934.149 378.612C937.7 381.453 940.975 385.29 941 389.8C940.862 391.902 940.165 393.931 938.979 395.681C937.794 397.431 936.162 398.84 934.25 399.766C930.36 401.536 926.072 402.274 921.807 401.909C907.198 401.261 893.194 397.997 884.025 386.71" fill="#EBEBEB"/>
<path d="M848 409C850.338 406.019 852.977 403.294 855.873 400.868C858.929 398.098 862.295 395.702 865.902 393.727C870.234 391.267 874.714 389.086 879.316 387.196C887.821 383.672 897.055 382.336 906.194 383.308C908.944 383.664 911.65 384.311 914.267 385.24C915.248 385.512 916.174 385.96 917 386.561C917 386.891 912.888 385.24 906.068 384.655C897.176 384.123 888.279 385.599 880.018 388.975C875.462 390.869 871.017 393.024 866.704 395.43C863.138 397.263 859.776 399.478 856.675 402.037C853.944 404.557 851.046 406.883 848 409Z" fill="#E0E0E0"/>
<path d="M924 298C923.221 299.747 922.294 301.425 921.23 303.016C919.341 306.176 916.571 310.665 913.07 316.207C906.094 327.267 896.272 342.44 885.015 358.842C873.757 375.243 863.13 389.99 855.222 400.423C851.268 405.664 848.019 409.827 845.727 412.686C844.616 414.232 843.369 415.675 842 417C842.898 415.323 843.943 413.729 845.123 412.235L854.139 399.695C861.694 389.062 872.171 374.315 883.428 357.813L911.937 315.43L920.6 302.564C921.591 300.943 922.729 299.415 924 298Z" fill="#E0E0E0"/>
<path d="M862.102 379.906C865.146 369.848 865.803 359.193 864.02 348.823C862.237 338.453 858.065 328.666 851.848 320.272C848.663 316.049 843.81 311.876 838.782 313.276C833.755 314.675 831.665 320.908 831.167 326.2C830.319 337.343 832.716 348.493 838.058 358.245C843.399 367.997 851.445 375.915 861.181 381" fill="#EBEBEB"/>
<path d="M848 336C848 336 848.773 336.799 849.866 338.497C850.958 340.195 852.531 342.518 854.103 345.539C858.635 353.466 861.563 362.11 862.739 371.035C863.769 380.097 861.736 389.233 856.929 397.155C855.503 399.526 853.843 401.767 851.971 403.847C850.665 405.296 849.892 406.07 849.786 405.995C849.679 405.92 852.451 402.499 855.649 396.506C859.937 388.726 861.706 379.943 860.74 371.235C859.51 362.525 856.811 354.054 852.744 346.138C850.943 342.853 849.359 339.467 848 336Z" fill="#E0E0E0"/>
<path d="M592.391 273.512L575.68 244.092C586.029 227.309 589.726 207.261 586.044 187.891C582.362 168.52 571.567 151.228 555.782 139.412C539.996 127.597 520.362 122.114 500.739 124.041C481.116 125.969 462.924 135.166 449.738 149.827C436.553 164.487 429.328 183.549 429.485 203.266C429.641 222.983 437.167 241.928 450.584 256.377C464 270.826 482.336 279.734 501.988 281.349C521.639 282.965 541.183 277.171 556.779 265.106L592.391 273.512Z" fill="#FAFAFA"/>
<path d="M592.391 273.513L556.679 265.334C556.628 265.317 556.584 265.282 556.557 265.236C556.529 265.19 556.519 265.135 556.528 265.082L556.855 265.384C545.902 273.94 532.875 279.437 519.104 281.315C514.937 281.914 510.725 282.125 506.52 281.944C504.381 281.944 502.191 281.768 499.976 281.592L493.332 280.585C473.495 276.705 455.887 265.399 444.104 248.975C437.554 239.894 433.015 229.521 430.791 218.548C428.512 206.936 428.83 194.964 431.722 183.489C434.74 171.441 440.6 160.292 448.811 150.973L452.032 147.449C453.089 146.241 454.348 145.26 455.48 144.178C456.613 143.095 457.77 141.963 459.054 141.057L462.854 138.238C464.089 137.302 465.393 136.461 466.755 135.721L470.757 133.205L474.935 131.191C476.304 130.475 477.716 129.845 479.163 129.304C490.356 124.891 502.394 123.034 514.397 123.867C525.757 124.629 536.813 127.867 546.788 133.356C564.688 143.334 578.075 159.802 584.187 179.362C586.622 187.679 587.776 196.318 587.61 204.982C587.395 212.511 586.098 219.97 583.759 227.13C581.793 233.064 579.14 238.748 575.856 244.067V244.093C586.427 262.993 591.611 272.28 592.391 273.639L575.479 244.093C575.461 244.057 575.452 244.019 575.452 243.979C575.452 243.94 575.461 243.901 575.479 243.866C578.717 238.561 581.318 232.893 583.23 226.979C585.53 219.873 586.793 212.473 586.98 205.007C587.119 196.416 585.948 187.853 583.507 179.613C577.423 160.248 564.134 143.959 546.385 134.111C536.484 128.68 525.514 125.485 514.246 124.748C502.346 123.91 490.409 125.751 479.314 130.134C477.888 130.677 476.493 131.299 475.136 131.997L471.008 134.01L467.057 136.401C465.709 137.149 464.414 137.99 463.181 138.918L459.456 141.711C457.07 143.737 454.753 145.844 452.51 148.028L449.314 151.527C441.299 160.775 435.605 171.801 432.703 183.691C429.828 195.03 429.502 206.866 431.747 218.346C433.927 229.233 438.406 239.53 444.885 248.547C456.551 264.793 473.946 276.008 493.559 279.931L500.152 280.963C502.342 281.139 504.506 281.189 506.646 281.315C510.774 281.494 514.91 281.3 519.003 280.736C526.41 279.756 533.639 277.722 540.471 274.696C546.219 272.144 551.643 268.917 556.628 265.082C556.649 265.06 556.675 265.043 556.703 265.031C556.731 265.019 556.761 265.012 556.792 265.012C556.823 265.012 556.853 265.019 556.881 265.031C556.909 265.043 556.934 265.06 556.955 265.082C556.98 265.124 556.993 265.172 556.993 265.221C556.993 265.269 556.98 265.317 556.955 265.359L556.804 265.007L592.391 273.513Z" fill="#263238"/>
<path d="M541.93 198.79C541.596 194.646 539.987 190.708 537.325 187.515C534.864 184.269 531.436 181.889 527.535 180.72C524.223 179.832 520.712 180.047 517.534 181.332C514.355 182.617 511.681 184.902 509.917 187.842C508.868 185.77 507.373 183.956 505.538 182.532C503.821 181.232 501.86 180.291 499.772 179.763C497.684 179.236 495.511 179.133 493.382 179.461C489.373 180.208 485.701 182.198 482.887 185.149C479.913 188.051 477.893 191.791 477.099 195.871C476.189 201.088 476.974 206.459 479.339 211.198C482.132 216.021 486.042 220.103 490.74 223.102C498.29 228.261 508.357 234.754 508.357 234.754C508.357 234.754 517.442 228.689 525.571 224.385C530.548 221.902 534.861 218.271 538.155 213.79C540.993 209.326 542.316 204.066 541.93 198.79Z" fill="#FF1493"/>
<path d="M853.076 773.943L720.443 811.015C684.227 813.959 610.965 820.276 610.965 820.276L622.97 984.419L673.028 983.79V984.444H833.395C833.395 984.444 867.321 933.983 870.819 871.87C872.719 838.284 866.639 804.727 853.076 773.943Z" fill="#263238"/>
<path d="M708.69 839.907C708.275 840.284 707.819 840.613 707.331 840.888L703.304 843.405C699.831 845.67 694.747 848.867 688.808 853.321C681.787 858.383 675.611 864.524 670.511 871.517C667.595 875.682 665.345 880.276 663.842 885.133C662.305 890.395 661.31 895.801 660.872 901.265C659.11 923.916 657.524 944.201 656.367 959.15C655.738 966.424 655.234 972.389 654.882 976.768C654.681 978.731 654.53 980.291 654.404 981.524C654.376 982.085 654.292 982.642 654.152 983.185C654.086 982.625 654.086 982.059 654.152 981.499C654.152 980.291 654.152 978.706 654.379 976.717C654.63 972.414 655.008 966.449 655.436 959.1C656.442 944.277 657.751 923.866 659.563 901.215C660.009 895.671 661.03 890.189 662.608 884.856C664.183 879.892 666.508 875.198 669.504 870.938C674.722 863.871 681.054 857.7 688.254 852.667C694.294 848.288 699.479 845.117 703.053 843.078C704.84 842.021 706.249 841.216 707.205 840.687C707.67 840.373 708.168 840.111 708.69 839.907Z" fill="#455A64"/>
<path d="M808.479 981.197C808.696 980.591 808.974 980.009 809.31 979.461L811.978 974.603L813.916 971.13C814.595 969.847 815.249 968.412 816.004 966.902C817.489 963.832 819.352 960.434 821.038 956.457C821.894 954.494 822.775 952.431 823.555 950.291C824.335 948.152 825.241 945.837 826.071 943.496C827.909 938.815 829.444 933.656 831.105 928.396C834.473 916.607 836.921 904.574 838.429 892.406C839.799 880.226 840.245 867.96 839.763 855.712C839.36 850.074 839.108 844.714 838.378 839.731C838.051 837.214 837.85 834.823 837.472 832.508C837.095 830.192 836.667 828.028 836.315 825.914C835.66 821.686 834.653 817.936 833.798 814.613C833.42 812.978 833.093 811.417 832.716 810.008C832.338 808.598 831.961 807.34 831.633 806.182C831.029 803.968 830.526 802.206 830.174 800.872C829.97 800.258 829.826 799.626 829.746 798.984C830.019 799.561 830.247 800.159 830.425 800.771C830.853 802.105 831.407 803.842 832.137 806.031C832.489 807.189 832.892 808.548 833.32 809.832C833.748 811.115 834.1 812.801 834.503 814.437C835.308 817.759 836.39 821.509 837.019 825.737C837.422 827.852 837.825 830.066 838.252 832.357C838.68 834.647 838.907 837.088 839.259 839.605C840.039 844.638 840.341 849.999 840.769 855.662C841.325 867.982 840.912 880.327 839.536 892.582C837.983 904.811 835.458 916.896 831.986 928.723C830.274 934.159 828.714 939.318 826.801 944C825.87 946.34 825.115 948.656 824.134 950.795C823.152 952.934 822.271 954.998 821.415 956.961C819.754 960.912 817.816 964.31 816.382 967.355C815.602 968.865 814.897 970.3 814.167 971.558L812.129 974.981L809.259 979.712C809.036 980.226 808.775 980.722 808.479 981.197Z" fill="#455A64"/>
<path d="M652.667 875.141C651.025 874.631 649.465 873.885 648.036 872.927C644.442 870.88 640.964 868.637 637.617 866.207C634.252 863.806 631.017 861.227 627.928 858.48C626.571 857.419 625.368 856.173 624.354 854.781C624.606 854.504 630.57 859.563 638.372 865.15C646.174 870.737 652.894 874.814 652.667 875.141Z" fill="#455A64"/>
<path d="M815.954 194.386C823.857 200.929 826.801 211.701 827.909 221.894C829.016 232.087 828.764 242.582 832.111 252.271C836.088 263.773 844.972 273.789 845.475 285.92C845.903 296.969 839.184 308.042 842.279 318.638C845.752 330.441 860.123 336.809 862.74 348.839C865.358 360.869 855.366 372.119 856.901 384.073C858.009 392.781 864.804 399.425 869.636 406.724C882.019 425.423 881.792 449.509 881.113 471.883C826.172 481.572 770.124 468.158 714.378 465.767C670.958 463.917 627.512 468.773 585.571 480.163C585.208 461.022 591.338 442.322 602.962 427.11C605.931 423.259 609.405 419.232 609.48 414.375C609.48 407.278 602.408 401.791 601.804 394.744C600.873 383.973 614.866 377.454 616.904 366.834C618.263 359.459 613.507 352.413 612.676 344.963C611.921 338.092 624.908 323.092 624.908 316.197C624.908 303.21 612.903 292.64 612.852 278.445C612.802 264.251 624.656 250.912 629.538 234.855" fill="#263238"/>
<path d="M824.561 731.359C817.615 719.506 838.504 634.44 846.835 561.001C866.692 488.015 856.323 458.594 839.989 428.242C835.66 420.163 824.561 410.952 817.087 405.591L790.006 386.414L710.98 388.427C710.98 388.427 649.068 457.361 637.844 467.831C626.619 478.3 553.256 536.714 601.905 592.108L601.2 839.831C629.941 846.45 860.199 783.028 860.199 783.028C847.455 766.418 835.561 749.173 824.561 731.359Z" fill="#E51284"/>
<g opacity="0.3">
<path opacity="0.3" d="M710.93 678.055C679.622 696.779 641.468 701.158 609.782 719.204C606.344 720.752 603.463 723.317 601.527 726.553V743.188C615.973 753.079 634.949 751.871 650.151 743.188C654.731 740.671 659.135 737.098 664.395 736.594C668.523 736.217 672.575 737.777 676.652 738.557C692.759 741.678 708.69 732.92 721.802 723.105C753.916 699.044 780.216 664.716 786.282 625.077C757.817 636.881 737.356 662.275 710.93 678.055Z" fill="black"/>
</g>
<path d="M723.413 156.232C715.473 152.182 707 149.275 698.246 147.599C689.89 145.813 680.628 146.794 673.884 152.18C665.125 159.277 663.212 171.811 656.568 180.921C652.265 186.836 646.099 190.988 640.637 195.896C635.176 200.804 630.067 206.743 629.085 213.991C628.305 219.906 630.369 225.896 629.966 231.86C628.96 246.533 613.305 258.362 615.772 272.883C617.609 283.554 628.733 290.501 631.552 300.97C633.263 307.237 631.753 313.931 632.609 320.374C634.078 328.716 638.555 336.228 645.193 341.49C651.773 346.687 659.093 350.869 666.912 353.897C675.788 357.689 684.84 361.045 694.068 363.964C699.504 365.676 706.35 366.909 710.175 362.656C712.843 359.686 712.818 355.105 712.692 351.23C709.344 285.945 706.652 219.453 723.413 156.232Z" fill="#263238"/>
<path d="M789.981 394.719L790.661 211.827C790.518 208.083 788.988 204.527 786.37 201.848C783.751 199.169 780.231 197.559 776.491 197.33L722.809 175.686L708.741 177.247C677.105 177.247 655.134 211.978 654.807 237.649C654.429 266.088 655.109 300.844 659.538 321.859C668.422 364.065 701.316 367.84 701.316 367.84C701.316 367.84 700.939 379.392 700.586 393.536L676.929 469.366L789.981 394.719Z" fill="#C78976"/>
<path d="M671.493 267.019C671.545 268.443 672.155 269.79 673.19 270.769C674.226 271.748 675.605 272.281 677.029 272.254C677.726 272.274 678.42 272.154 679.07 271.902C679.719 271.649 680.311 271.268 680.811 270.783C681.311 270.297 681.708 269.716 681.98 269.074C682.251 268.431 682.39 267.741 682.39 267.044C682.338 265.625 681.731 264.282 680.701 263.303C679.671 262.325 678.299 261.789 676.878 261.81C676.18 261.786 675.483 261.903 674.831 262.154C674.178 262.406 673.583 262.786 673.08 263.272C672.578 263.758 672.178 264.34 671.905 264.984C671.633 265.628 671.492 266.32 671.493 267.019Z" fill="#263238"/>
<path d="M662.734 251.063C663.313 252.019 668.397 249.075 674.739 250.107C681.081 251.139 685.108 255.392 685.939 254.637C686.341 254.31 685.939 252.649 684.127 250.685C681.799 248.18 678.697 246.531 675.318 246.004C671.96 245.484 668.524 246.123 665.578 247.816C663.338 249.125 662.407 250.61 662.734 251.063Z" fill="#263238"/>
<path d="M701.895 298.101C701.895 297.749 698.22 297.321 692.256 296.843C690.771 296.843 689.336 296.541 689.009 295.534C688.815 293.988 689.087 292.42 689.789 291.029L693.665 279.402C699.001 262.841 702.801 249.201 702.122 249.025C701.442 248.848 696.585 262.086 691.224 278.647C689.966 282.724 688.707 286.625 687.575 290.35C686.704 292.197 686.526 294.296 687.071 296.264C687.313 296.774 687.664 297.226 688.099 297.587C688.533 297.948 689.042 298.209 689.588 298.353C690.417 298.515 691.26 298.591 692.105 298.579C695.375 298.824 698.664 298.664 701.895 298.101Z" fill="#263238"/>
<path d="M701.316 367.79C721.37 367.115 740.843 360.885 757.566 349.795C757.566 349.795 743.849 379.996 701.064 378.209L701.316 367.79Z" fill="#BF654E"/>
<path d="M705.091 312.044C706.138 310.582 707.54 309.411 709.165 308.64C710.79 307.87 712.584 307.525 714.378 307.64C715.679 307.693 716.955 308.008 718.131 308.566C719.307 309.124 720.359 309.913 721.224 310.886C722.061 311.822 722.59 312.993 722.739 314.241C722.888 315.488 722.648 316.751 722.054 317.858C721.168 318.95 719.977 319.755 718.634 320.171C717.29 320.588 715.853 320.597 714.504 320.198C711.677 319.349 709.044 317.955 706.752 316.096C706.066 315.657 705.469 315.094 704.991 314.435C704.776 314.11 704.662 313.729 704.662 313.34C704.662 312.951 704.776 312.57 704.991 312.245" fill="#FF1493"/>
<path d="M719.386 301.297C718.43 301.297 718.732 307.665 713.497 312.447C708.262 317.228 701.442 316.901 701.442 317.782C701.442 318.185 703.028 318.965 705.897 318.889C709.631 318.751 713.196 317.298 715.964 314.787C718.64 312.39 720.268 309.036 720.494 305.45C720.62 302.782 719.814 301.222 719.386 301.297Z" fill="#263238"/>
<path d="M683.598 222.775C682.013 221.969 678.313 224.964 673.254 227.053C668.196 229.142 663.54 229.973 663.187 231.659C663.011 232.464 664.169 233.446 666.535 233.874C669.688 234.294 672.896 233.823 675.796 232.515C678.723 231.305 681.245 229.289 683.07 226.701C684.227 224.713 684.303 223.203 683.598 222.775Z" fill="#263238"/>
<path d="M738.237 268.353C738.264 269.776 737.735 271.154 736.762 272.193C735.789 273.232 734.449 273.85 733.027 273.915C732.335 273.981 731.636 273.907 730.972 273.698C730.309 273.489 729.694 273.149 729.164 272.699C728.634 272.249 728.199 271.697 727.886 271.075C727.572 270.454 727.386 269.777 727.339 269.083C727.305 267.66 727.827 266.279 728.796 265.235C729.764 264.192 731.102 263.568 732.524 263.496C733.219 263.43 733.921 263.505 734.588 263.715C735.255 263.925 735.872 264.267 736.405 264.719C736.937 265.172 737.374 265.727 737.688 266.351C738.003 266.975 738.189 267.656 738.237 268.353Z" fill="#263238"/>
<path d="M722.608 220.233C724.269 219.327 728.849 222.146 734.839 223.983C740.829 225.82 746.19 226.5 746.97 228.085C747.272 228.89 746.089 229.947 743.522 230.602C739.972 231.199 736.329 230.896 732.926 229.721C729.498 228.701 726.388 226.821 723.891 224.26C722.155 222.221 721.853 220.686 722.608 220.233Z" fill="#263238"/>
<path d="M726.081 173.472C747.322 202.414 769.973 235.132 791.995 263.471C795.795 249.326 799.369 227.959 796.701 213.538C794.304 198.914 786.598 185.687 775.057 176.391C763.404 167.507 742.591 165.67 729 171.131" fill="#263238"/>
<path d="M782.179 283.73C782.028 280.559 785.3 272.908 788.421 272.254C796.701 270.543 811.801 270.467 813.009 291.683C814.645 320.676 785.199 316.348 785.099 315.517C784.998 314.686 782.683 294.678 782.179 283.73Z" fill="#C78976"/>
<path d="M793.328 304.041C793.454 304.041 793.857 304.368 794.738 304.695C795.369 304.923 796.039 305.023 796.709 304.988C797.379 304.954 798.035 304.785 798.639 304.494C801.634 303.185 803.949 298.177 803.672 292.942C803.604 290.451 802.976 288.008 801.835 285.794C801.511 284.901 800.976 284.101 800.275 283.461C799.573 282.821 798.727 282.36 797.808 282.12C797.219 281.99 796.602 282.075 796.071 282.362C795.54 282.648 795.129 283.116 794.914 283.68C794.562 284.511 794.914 285.089 794.637 285.14C794.36 285.19 793.983 284.687 794.159 283.479C794.272 282.749 794.637 282.081 795.191 281.591C795.566 281.268 796.002 281.024 796.473 280.873C796.944 280.721 797.441 280.666 797.934 280.71C799.138 280.872 800.28 281.342 801.25 282.074C802.22 282.806 802.984 283.775 803.471 284.888C804.854 287.334 805.615 290.082 805.686 292.891C805.837 298.73 803.169 304.368 799.016 305.827C798.252 306.098 797.437 306.193 796.631 306.106C795.825 306.018 795.049 305.751 794.36 305.324C793.429 304.745 793.228 304.091 793.328 304.041Z" fill="#BF654E"/>
<path d="M716.819 165.418C698.95 166.802 678.086 172.314 666.962 186.332C655.838 200.351 649.471 217.666 645.696 235.182C642.478 251.897 640.351 268.803 639.329 285.794C638.432 293.532 638.339 301.342 639.052 309.099C639.79 316.902 642.939 324.282 648.062 330.215C644.865 323.344 651.686 311.742 651.031 301.297L655.436 283.907C654.706 270.09 660.066 264.603 660.469 258.06C660.796 253.026 658.556 248.42 656.87 243.739C655.184 239.058 654.102 233.672 656.543 229.343C658.984 225.015 664.974 222.926 668.221 218.748C671.92 213.991 671.618 207.146 674.764 201.986C679.118 194.814 688.481 192.976 695.88 189C705.469 183.815 717.524 178.933 719.135 168.061L716.819 165.418Z" fill="#263238"/>
<path d="M744.806 250.811C744.202 251.768 739.067 248.697 732.574 249.654C726.081 250.61 721.853 254.838 721.022 254.058C720.62 253.731 721.148 252.045 722.96 250.081C725.387 247.572 728.587 245.95 732.046 245.476C735.484 244.987 738.986 245.698 741.962 247.489C744.202 248.899 745.133 250.358 744.806 250.811Z" fill="#263238"/>
<path d="M725.653 300.064C725.301 300.064 724.697 299.007 723.388 298.202C722.079 297.396 720.871 297.271 720.871 296.918C720.871 296.566 722.507 295.987 724.219 297.12C725.93 298.252 726.005 300.039 725.653 300.064Z" fill="#BF654E"/>
<path d="M837.07 292.212C836.893 283.957 830.249 277.111 828.84 268.882C827.657 261.986 829.318 254.989 830.174 248.043C831.972 230.935 828.818 213.671 821.086 198.304C813.353 182.938 801.369 170.116 786.558 161.366C774.581 155.024 761.771 150.399 748.505 147.625C743.436 146.104 738.124 145.557 732.851 146.014C730.217 146.284 727.698 147.236 725.545 148.776C723.391 150.316 721.676 152.392 720.569 154.797C714.353 163.379 711.861 176.618 716.794 185.98C724.042 199.671 744.101 201.886 752.28 215.048C761.039 229.142 752.129 248.697 759.252 263.697C763.782 273.261 770.451 276.281 774.075 286.096C775.887 291.13 765.468 308.747 765.141 314.108C763.757 337.287 773.824 358.78 773.421 385.508C773.381 387.849 773.851 390.172 774.799 392.313C775.747 394.455 777.15 396.364 778.91 397.909C780.67 399.453 782.746 400.596 784.992 401.258C787.239 401.92 789.603 402.085 791.919 401.741L813.085 400.206C831.08 394.04 837.951 330.215 837.07 292.212Z" fill="#263238"/>
<path d="M859.418 481.446C859.458 481.114 859.526 480.786 859.62 480.465C859.771 479.785 859.997 478.854 860.274 477.646C860.675 476.123 860.977 474.577 861.18 473.015C861.18 472.109 861.533 471.128 861.608 470.045C861.684 468.963 861.784 467.856 861.885 466.648C862.733 452.96 859.734 439.308 853.227 427.235C848.756 418.95 842.692 411.628 835.383 405.692C831.432 402.571 826.877 399.878 822.397 396.758C817.53 393.759 813.51 389.566 810.719 384.577C809.459 381.814 809.022 378.747 809.461 375.743C810.036 372.73 811.227 369.868 812.959 367.337C816.256 362.303 820.711 357.824 823.026 352.236C825.205 346.367 825.205 339.91 823.026 334.04C820.933 327.915 817.819 322.188 813.815 317.103C809.813 311.893 805.384 307.036 801.382 302.002C797.275 297.054 794.017 291.457 791.743 285.442C789.859 279.504 789.199 273.245 789.805 267.044C790.283 261.004 791.34 255.216 792.12 249.427C793.03 243.956 793.259 238.394 792.8 232.867C792.255 227.698 790.439 222.743 787.515 218.446C784.657 214.517 781.036 211.205 776.869 208.706C773.02 206.347 768.969 204.334 764.763 202.691C756.735 199.47 749.235 197.079 742.868 194.436C737.324 192.343 732.079 189.534 727.264 186.081C724.214 183.896 721.552 181.216 719.386 178.153C718.611 177.112 717.937 176 717.373 174.831C717.373 174.831 718.078 175.963 719.588 178.002C721.836 180.956 724.527 183.545 727.566 185.678C732.436 189.028 737.713 191.743 743.27 193.757C749.638 196.273 757.138 198.639 765.242 201.835C769.509 203.466 773.619 205.479 777.523 207.85C781.84 210.427 785.59 213.851 788.547 217.917C791.593 222.358 793.487 227.487 794.058 232.842C794.562 238.458 794.351 244.116 793.429 249.679C792.674 255.392 791.642 261.18 791.189 267.12C790.598 273.143 791.24 279.223 793.077 284.989C795.317 290.868 798.515 296.336 802.54 301.171C806.491 306.205 810.921 311.037 815.124 316.272C819.217 321.48 822.399 327.343 824.536 333.612C826.75 339.783 826.678 346.542 824.335 352.664C821.818 358.654 817.288 363.058 814.117 368.016C812.461 370.394 811.328 373.096 810.795 375.944C810.368 378.706 810.762 381.533 811.927 384.073C814.604 388.885 818.468 392.932 823.152 395.826C827.581 398.922 832.137 401.615 836.164 404.862C843.521 410.909 849.589 418.371 854.007 426.808C860.519 439.034 863.417 452.861 862.363 466.673C862.363 467.881 862.136 469.039 862.036 470.121C861.935 471.203 861.683 472.159 861.532 473.091C861.285 474.652 860.949 476.198 860.526 477.721C860.173 478.904 859.922 479.81 859.72 480.515C859.646 480.833 859.545 481.145 859.418 481.446Z" fill="#455A64"/>
<path d="M871.927 433.678C871.927 433.678 872.153 432.495 872.203 430.205C872.204 426.869 871.51 423.569 870.165 420.516C868.026 415.697 865.043 411.299 861.356 407.529C857.178 402.974 851.692 398.469 846.583 392.429C840.877 385.866 837.567 377.561 837.196 368.872C836.642 359.585 838.378 349.82 839.511 339.602C840.146 334.401 840.29 329.151 839.939 323.923C839.51 318.48 838.175 313.146 835.988 308.143C831.709 297.849 824.712 288.412 819.754 277.464C818.513 274.744 817.453 271.944 816.583 269.083C815.788 266.239 815.175 263.347 814.746 260.425C813.89 254.662 813.614 248.924 813.286 243.311C813.06 237.83 812.505 232.367 811.625 226.953C810.763 221.819 809.063 216.862 806.592 212.28C801.528 203.982 794.274 197.242 785.627 192.8C778.144 188.819 770.35 185.453 762.322 182.733C754.998 180.066 748.379 177.549 742.742 174.931C737.9 172.72 733.281 170.048 728.95 166.953C726.235 164.966 723.707 162.733 721.4 160.284C720.62 159.428 720.066 158.749 719.688 158.296C719.311 157.843 719.135 157.616 719.16 157.591C719.386 157.783 719.597 157.994 719.789 158.22L721.576 160.108C723.924 162.445 726.448 164.599 729.126 166.551C733.492 169.526 738.117 172.103 742.943 174.252C748.581 176.769 755.2 179.285 762.549 181.802C770.639 184.528 778.5 187.894 786.055 191.869C794.905 196.371 802.335 203.236 807.523 211.701C810.136 216.397 811.931 221.504 812.833 226.802C813.76 232.263 814.34 237.777 814.57 243.311C815.199 254.461 815.728 266.289 820.962 277.011C825.82 287.782 832.816 297.145 837.17 307.74C839.4 312.865 840.761 318.326 841.197 323.898C841.525 329.204 841.356 334.529 840.694 339.804C839.536 350.072 837.774 359.761 838.177 368.872C838.49 377.346 841.666 385.464 847.187 391.9C852.22 397.84 857.606 402.395 861.784 407.001C865.484 410.873 868.451 415.384 870.542 420.314C871.862 423.431 872.48 426.799 872.354 430.18C872.315 431.027 872.205 431.868 872.027 432.697C872.002 433.402 871.927 433.704 871.927 433.678Z" fill="white"/>
<path d="M588.063 504.349C582.518 506.951 577.931 511.229 574.95 516.58C566.569 531.681 549.254 563.643 542.232 584.532C532.795 612.468 518.097 658.978 550.89 702.82C576.058 736.368 628.028 729.069 651.182 723.759C658.334 722.097 664.613 717.837 668.8 711.804L754.52 587.653C757.179 583.804 758.879 579.375 759.478 574.735C760.077 570.095 759.558 565.38 757.965 560.981C756.372 556.583 753.75 552.629 750.318 549.45C746.886 546.27 742.744 543.957 738.237 542.704L716.744 536.664C713.271 535.695 710.084 533.899 707.457 531.429L657.877 490.104C653.576 486.525 648.341 484.25 642.79 483.545C637.239 482.841 631.603 483.737 626.544 486.127L588.063 504.349Z" fill="#455A64"/>
<path d="M721.098 528.484C720.603 527.994 719.954 527.692 719.261 527.629C715.528 526.886 711.673 527.038 708.011 528.072C704.349 529.106 700.984 530.994 698.192 533.579C695.4 536.165 693.26 539.375 691.949 542.948C690.637 546.52 690.19 550.352 690.645 554.13L710.15 561.303C713.799 551.437 717.876 541.798 721.525 531.932C721.733 531.365 721.803 530.756 721.729 530.157C721.654 529.557 721.438 528.984 721.098 528.484Z" fill="#D39688"/>
<path d="M619.95 509.684C623.27 504.82 628.192 501.274 633.858 499.665C639.523 498.055 645.574 498.484 650.956 500.876C657.6 503.82 662.13 510.238 665.427 518.719C675.293 544.038 675.972 551.437 675.972 551.437L682.315 535.053L714.403 549.575C714.403 549.575 696.786 609.071 681.132 613.299C677.16 614.276 673.029 614.413 669.001 613.701C662.713 612.64 656.735 610.211 651.49 606.583C646.245 602.956 641.861 598.221 638.649 592.712L622.768 556.471" fill="#455A64"/>
<path d="M622.743 556.37C622.873 556.559 622.983 556.762 623.07 556.974L623.951 558.786C624.706 560.497 625.788 562.863 627.173 565.883L639.001 592.435C642.986 599.032 648.603 604.493 655.31 608.29C659.109 610.441 663.231 611.962 667.516 612.795C672.059 613.818 676.781 613.732 681.283 612.544C683.488 611.667 685.443 610.258 686.971 608.441C688.666 606.595 690.191 604.599 691.526 602.477C694.366 598.073 696.889 593.472 699.076 588.71C703.693 578.611 707.735 568.259 711.182 557.704C712.113 554.91 713.019 552.117 713.875 549.348L714.227 550.128L682.138 535.582L682.969 535.229L676.602 551.588L675.821 553.602L675.444 551.437C674.118 545.056 672.326 538.781 670.083 532.662C667.994 526.773 665.956 521.11 663.791 515.976C661.817 511.136 658.669 506.863 654.63 503.543C651.015 500.951 646.74 499.433 642.298 499.164C635.921 498.788 629.635 500.818 624.681 504.852C622.97 506.336 621.394 507.97 619.975 509.735L620.201 509.332L620.956 508.275C621.983 506.918 623.147 505.669 624.429 504.55C626.518 502.765 628.88 501.329 631.426 500.297C634.862 498.892 638.566 498.265 642.273 498.46C646.885 498.646 651.344 500.167 655.108 502.839C659.289 506.171 662.568 510.497 664.647 515.422C666.912 520.657 668.951 526.244 671.065 532.184C672.122 535.129 673.154 538.199 674.11 541.345C675.179 544.57 676.02 547.867 676.627 551.211L675.318 551.135C677.382 545.85 679.496 540.389 681.66 534.751L681.887 534.147L682.516 534.399L714.604 548.92L715.133 549.147L714.957 549.701C714.126 552.494 713.22 555.288 712.289 558.106C708.816 568.699 704.74 579.085 700.083 589.213C697.899 594.026 695.376 598.677 692.533 603.131C691.149 605.306 689.574 607.352 687.826 609.247C686.135 611.201 683.993 612.713 681.585 613.651C676.893 614.893 671.968 614.971 667.239 613.878C662.821 613.001 658.572 611.421 654.655 609.196C647.83 605.274 642.141 599.646 638.146 592.863C633.263 581.537 629.387 572.477 626.669 566.16C625.386 563.09 624.354 560.674 623.649 558.962C623.322 558.207 623.095 557.578 622.894 557.1C622.824 556.861 622.773 556.617 622.743 556.37Z" fill="#263238"/>
<path d="M669.63 568.475C671.073 562.122 673.367 555.993 676.451 550.254C675.008 556.607 672.714 562.736 669.63 568.475Z" fill="#263238"/>
<path d="M542.081 634.968C555.346 625.887 571.383 621.762 587.383 623.315L542.081 634.968Z" fill="#455A64"/>
<path d="M587.408 623.315C587.408 623.517 584.715 623.315 580.411 623.441C574.832 623.628 569.288 624.412 563.876 625.782C558.471 627.189 553.238 629.19 548.273 631.747C544.447 633.684 542.207 635.144 542.081 634.968C543.81 633.374 545.739 632.012 547.82 630.916C552.753 628.091 558.044 625.941 563.549 624.523C569.054 623.099 574.727 622.43 580.411 622.535C582.769 622.456 585.126 622.718 587.408 623.315Z" fill="#263238"/>
<path d="M705.519 657.443C705.088 656.978 704.693 656.482 704.336 655.958L701.039 651.679C697.038 646.401 692.51 641.543 687.524 637.183C679.908 630.969 671.668 625.563 662.936 621.05C653.171 615.765 642.525 609.7 630.822 604.515C619.854 599.569 608.276 596.107 596.393 594.222C586.69 592.677 576.87 591.994 567.047 592.183C558.641 592.309 551.947 592.963 547.19 593.467L541.804 594.071C541.179 594.157 540.548 594.208 539.917 594.222C540.521 594.013 541.145 593.87 541.779 593.794C542.987 593.593 544.799 593.265 547.14 592.938C553.731 592.011 560.369 591.448 567.022 591.252C576.913 590.933 586.811 591.523 596.594 593.014C608.588 594.873 620.278 598.335 631.351 603.307C643.129 608.542 653.775 614.633 663.54 619.993C672.295 624.605 680.537 630.131 688.128 636.478C693.119 640.921 697.586 645.92 701.442 651.377C702.826 653.265 703.959 654.775 704.538 655.807C704.924 656.314 705.254 656.863 705.519 657.443Z" fill="white"/>
<path d="M624.505 564.147C623.549 564.184 622.592 564.091 621.661 563.87L613.935 562.813C607.391 561.982 598.356 561.101 588.314 560.825C578.272 560.548 569.212 561.026 562.643 561.529L554.892 562.209C553.942 562.345 552.981 562.388 552.023 562.335C552.924 562.01 553.862 561.798 554.816 561.705C556.628 561.353 559.296 561.001 562.568 560.623C579.711 558.717 597.034 559.148 614.06 561.907C617.307 562.435 619.95 562.964 621.737 563.366C622.685 563.525 623.613 563.787 624.505 564.147Z" fill="white"/>
<path d="M622.768 527.201C620.224 526.75 617.704 526.17 615.218 525.464C609.211 524.078 603.1 523.186 596.946 522.796C590.795 522.44 584.624 522.6 578.499 523.275C573.792 523.778 570.948 524.307 570.948 524.105C571.581 523.804 572.249 523.584 572.937 523.451C574.22 523.124 576.133 522.721 578.474 522.343C584.643 521.403 590.893 521.116 597.123 521.488C603.354 521.867 609.528 522.896 615.545 524.558C617.361 525.055 619.15 525.643 620.906 526.32C622.114 526.798 622.794 527.1 622.768 527.201Z" fill="white"/>
<path d="M668.624 527.704C668.624 527.931 665.779 527.704 661.249 528.157C649.347 529.153 637.985 533.567 628.532 540.867C624.933 543.66 622.945 545.699 622.794 545.523C622.643 545.346 623.171 544.919 624.027 543.937C625.245 542.58 626.557 541.31 627.953 540.137C637.276 532.301 648.93 527.77 661.098 527.251C662.928 527.153 664.762 527.195 666.585 527.377C667.278 527.37 667.967 527.48 668.624 527.704Z" fill="white"/>
<path d="M670.008 562.964C664.374 566.528 658.954 570.419 653.775 574.616C648.879 579.134 644.241 583.924 639.882 588.962C640.688 587.133 641.766 585.436 643.078 583.928C648.934 576.342 656.262 570.015 664.622 565.33C666.293 564.284 668.107 563.488 670.008 562.964Z" fill="white"/>
<path d="M676.677 614.633C675.34 606.145 674.45 597.593 674.009 589.012C672.902 574.818 672.298 563.291 672.65 563.266C673.97 571.756 674.861 580.307 675.318 588.886C676.425 603.081 677.029 614.608 676.677 614.633Z" fill="white"/>
<path d="M707.054 568.576C702.501 564.799 697.691 561.343 692.659 558.232C687.399 555.515 681.948 553.185 676.35 551.261C678.118 551.279 679.871 551.593 681.534 552.192C689.779 554.495 697.344 558.761 703.581 564.625C704.95 565.74 706.124 567.075 707.054 568.576Z" fill="white"/>
<path d="M734.789 605.295C734.512 605.572 728.17 599.306 719.361 592.863C710.553 586.42 702.7 582.242 702.876 581.865C704.759 582.461 706.554 583.308 708.212 584.381C712.354 586.613 716.332 589.136 720.116 591.932C723.92 594.717 727.528 597.761 730.913 601.042C732.388 602.282 733.691 603.712 734.789 605.295Z" fill="white"/>
<path d="M554.766 627.141C554.766 627.519 549.506 626.537 543.063 626.663C536.62 626.789 531.486 627.921 531.385 627.544C538.907 624.762 547.152 624.62 554.766 627.141Z" fill="white"/>
<path d="M682.868 688.826C682.868 688.826 681.862 687.165 679.924 684.296C677.138 680.277 673.876 676.609 670.209 673.374C664.737 668.616 658.713 664.535 652.265 661.218C645.017 657.392 636.661 653.944 627.877 650.345C610.109 643.399 595.411 634.138 583.734 629.96C579.161 628.221 574.434 626.924 569.615 626.084C566.192 625.48 564.254 625.43 564.254 625.304C564.722 625.243 565.195 625.243 565.663 625.304C567.003 625.308 568.34 625.408 569.665 625.606C574.57 626.251 579.389 627.432 584.036 629.129C595.965 633.131 610.688 642.241 628.381 649.263C636.708 652.521 644.865 656.2 652.818 660.287C659.328 663.71 665.382 667.938 670.838 672.87C674.508 676.197 677.708 680.007 680.352 684.196C681.258 685.706 681.937 686.889 682.315 687.719C682.529 688.072 682.714 688.443 682.868 688.826Z" fill="white"/>
<path d="M660.922 717.794C660.922 717.794 660.494 717.593 659.765 717.064L656.543 714.749C655.184 713.717 653.498 712.484 651.51 711.15C649.521 709.816 647.256 708.155 644.639 706.544C639.605 703.222 633.213 699.548 626.04 695.823C618.218 691.857 610.186 688.32 601.98 685.227C593.736 682.25 585.334 679.729 576.812 677.677C568.935 675.84 561.712 674.531 555.697 673.726C552.677 673.248 549.908 673.021 547.492 672.744C545.076 672.468 542.987 672.291 541.276 672.191L537.35 671.864C536.89 671.854 536.433 671.787 535.991 671.662C536.441 671.59 536.9 671.59 537.35 671.662H541.301C543.038 671.662 545.127 671.662 547.568 671.989C550.009 672.317 552.778 672.367 555.823 672.795C562.971 673.646 570.07 674.872 577.089 676.469C594.31 680.411 610.949 686.561 626.594 694.766C632.976 698.104 639.168 701.793 645.142 705.814C647.659 707.45 649.949 709.137 651.937 710.571C653.926 712.006 655.587 713.289 656.971 714.371L660.016 716.888C660.347 717.16 660.65 717.464 660.922 717.794Z" fill="white"/>
<path d="M667.768 499.592C663.552 498.45 659.237 497.709 654.882 497.377C650.517 497.497 646.171 498.002 641.896 498.887C645.883 496.722 650.407 495.744 654.932 496.069C659.461 495.979 663.919 497.203 667.768 499.592Z" fill="white"/>
<path d="M743.27 418.276C734.235 398.872 717.348 387.471 692.457 386.54C684.631 386.039 676.79 387.25 669.479 390.088C653.125 397.062 639.756 409.585 631.728 425.449C623.951 442.034 625.663 462.017 624.807 479.055L627.324 479.206C648.439 489.072 659.437 502.26 676.274 519.877C680.628 524.432 698.548 526.597 705.821 527.125C712.163 527.553 719.11 524.03 724.244 520.28C741.483 507.696 741.458 496.144 746.894 475.507C752.331 454.869 752.331 437.655 743.27 418.276Z" fill="#D39688"/>
<path d="M723.665 479.559C724.344 479.232 726.484 482.503 730.712 484.039C734.94 485.574 738.765 484.592 739.042 485.272C739.319 485.951 738.337 486.329 736.525 486.807C734.238 487.417 731.818 487.294 729.604 486.455C727.419 485.653 725.543 484.182 724.244 482.252C723.438 480.792 723.338 479.71 723.665 479.559Z" fill="#263238"/>
<path d="M680.603 465.389C681.333 465.138 682.994 468.712 686.945 470.826C690.897 472.94 694.848 472.512 695.024 473.342C695.024 473.669 694.194 474.274 692.507 474.5C690.159 474.769 687.785 474.303 685.712 473.166C683.661 472.073 682.013 470.353 681.006 468.259C680.352 466.572 680.351 465.566 680.603 465.389Z" fill="#263238"/>
<path d="M696.71 447.747C696.182 448.577 693.564 447.747 690.469 447.747C687.373 447.747 684.705 448.2 684.227 447.344C684.026 446.916 684.479 446.161 685.612 445.457C687.148 444.607 688.89 444.197 690.645 444.274C692.385 444.313 694.078 444.845 695.528 445.809C696.534 446.564 696.937 447.369 696.71 447.747Z" fill="#263238"/>
<path d="M742.565 463.552C741.559 464.106 738.816 463.3 736.4 461.74C733.983 460.18 732.901 458.468 733.883 457.889C734.864 457.311 737.658 458.141 740.049 459.702C742.44 461.262 743.597 463.049 742.565 463.552Z" fill="#263238"/>
<path d="M699.68 500.221C699.68 500.498 698.925 500.75 697.767 500.498C696.223 500.183 694.86 499.281 693.967 497.981C693.077 496.66 692.726 495.048 692.986 493.476C693.212 492.293 693.715 491.74 693.967 491.815C694.219 491.891 694.118 494.533 695.704 496.849C697.289 499.164 699.731 499.668 699.68 500.221Z" fill="#263238"/>
<path d="M711.282 479.181C711.559 479.181 711.761 480.314 711.811 482.076C711.811 482.982 711.811 484.013 711.811 485.196C711.811 485.767 711.811 486.371 711.811 487.008C711.841 487.747 711.756 488.486 711.559 489.198C711.441 489.648 711.229 490.069 710.939 490.433C710.649 490.797 710.286 491.096 709.873 491.312C709.098 491.712 708.208 491.828 707.356 491.639C706.68 491.489 706.05 491.179 705.519 490.733C705.084 490.389 704.702 489.982 704.387 489.525C703.355 487.864 703.229 486.757 703.455 486.631C703.682 486.505 704.387 487.436 705.519 488.569C706.084 489.187 706.852 489.58 707.683 489.676C708.083 489.711 708.484 489.632 708.841 489.45C709.167 489.242 709.401 488.918 709.496 488.544C709.632 487.983 709.708 487.409 709.722 486.832C709.722 486.203 709.848 485.599 709.898 484.995C710.049 483.837 710.2 482.78 710.351 481.925C710.552 480.238 711.005 479.156 711.282 479.181Z" fill="#263238"/>
<path d="M726.207 393.914C714.519 386.918 700.915 383.807 687.348 385.03C669.454 386.288 651.585 394.065 640.562 408.184C633.86 417.215 629.385 427.7 627.5 438.787C625.646 449.817 624.669 460.976 624.581 472.159C624.318 473.385 624.387 474.659 624.781 475.849C625.175 477.039 625.879 478.102 626.82 478.929C627.822 479.588 628.994 479.938 630.193 479.938C631.391 479.938 632.564 479.588 633.565 478.929C637.391 476.413 638.221 471.732 637.718 467.478C637.265 463.804 635.981 460.255 635.528 456.581C634.876 452.462 635.772 448.248 638.045 444.752C639.377 442.759 641.376 441.307 643.682 440.657C645.989 440.006 648.452 440.2 650.629 441.203C652.319 442.166 653.572 443.744 654.127 445.608C655.763 450.817 651.61 452.629 650 456.002C648.993 458.141 650 461.589 652.516 461.312C653.699 461.161 657.273 462.898 658.003 461.967C661.065 457.96 663.337 453.408 664.697 448.552C665.88 444.5 664.093 437.781 664.697 433.578C664.855 431.495 665.431 429.465 666.391 427.61C667.351 425.755 668.675 424.112 670.285 422.781C674.563 419.887 680.352 420.793 685.108 418.679C689.236 416.866 692.482 412.764 696.987 412.613C702.6 412.437 706.274 418.276 711.182 420.944C718.329 424.819 727.515 421.623 735.04 424.668C736.995 425.674 739.003 426.573 741.055 427.361C743.195 427.94 749.26 435.667 750.569 433.88C749.21 420.264 737.633 401.137 726.207 393.914Z" fill="#263238"/>
<path d="M653.875 452.252C654.445 451.064 654.739 449.762 654.735 448.444C654.732 447.126 654.431 445.827 653.855 444.641C653.279 443.456 652.443 442.416 651.41 441.598C650.376 440.781 649.172 440.207 647.885 439.92C643.481 439.064 638.372 440.423 634.521 448.452C626.266 465.717 642.198 468.586 642.474 468.133C646.906 463.322 650.734 457.989 653.875 452.252Z" fill="#D39688"/>
<path d="M644.135 461.388C644.135 461.388 643.733 461.388 643.104 461.388C642.677 461.373 642.257 461.275 641.868 461.097C641.48 460.92 641.13 460.668 640.839 460.356C639.328 458.821 639.178 455.322 640.587 452.051C641.251 450.552 642.24 449.22 643.481 448.15C643.903 447.689 644.43 447.337 645.017 447.122C645.604 446.907 646.234 446.837 646.854 446.916C647.24 446.992 647.589 447.198 647.841 447.501C648.093 447.803 648.233 448.184 648.238 448.578C648.238 449.182 647.961 449.484 648.036 449.559C648.112 449.635 648.54 449.559 648.741 448.653C648.861 448.18 648.807 447.68 648.59 447.244C648.285 446.657 647.76 446.214 647.13 446.01C646.356 445.821 645.546 445.829 644.776 446.036C644.006 446.243 643.301 446.641 642.726 447.193C641.264 448.322 640.113 449.803 639.379 451.497C637.818 455.02 638.045 459.047 640.184 461.061C640.587 461.41 641.062 461.668 641.575 461.816C642.088 461.964 642.626 461.998 643.154 461.916C643.909 461.79 644.186 461.438 644.135 461.388Z" fill="#BF654E"/>
<path d="M685.536 492.545C685.335 492.545 685.712 490.909 685.536 488.342C685.442 485.006 684.426 481.76 682.6 478.966C680.774 476.172 678.21 473.938 675.192 472.512C672.877 471.379 671.266 471.077 671.316 470.876C672.779 470.736 674.252 471.006 675.57 471.656C678.901 472.951 681.744 475.257 683.698 478.249C685.652 481.242 686.621 484.771 686.467 488.342C686.561 489.803 686.238 491.261 685.536 492.545Z" fill="#BF654E"/>
<path d="M705.167 385.457C704.741 385.518 704.309 385.518 703.883 385.457L700.335 385.08C695.965 384.705 691.573 384.663 687.197 384.954C680.734 385.427 674.375 386.843 668.321 389.157C660.931 392.082 654.083 396.225 648.062 401.414C644.912 404.025 642.089 407.008 639.656 410.298C637.412 413.384 635.441 416.659 633.766 420.088C631.018 425.979 628.933 432.158 627.55 438.511C626.603 442.791 625.872 447.117 625.361 451.472C625.235 453.085 625.016 454.69 624.706 456.279C624.645 455.861 624.645 455.438 624.706 455.02C624.706 454.19 624.706 452.982 624.882 451.421C625.198 447.017 625.795 442.637 626.669 438.309C627.936 431.851 629.964 425.566 632.709 419.585C634.385 416.058 636.373 412.689 638.649 409.518C641.134 406.147 644.015 403.088 647.231 400.407C653.366 395.131 660.365 390.95 667.919 388.05C674.095 385.738 680.587 384.38 687.172 384.023C691.592 383.808 696.023 383.993 700.41 384.577L703.959 385.206C704.371 385.233 704.778 385.318 705.167 385.457Z" fill="#455A64"/>
<path d="M533.952 667.359C533.952 667.359 556.829 690.815 566.393 686.335C575.957 681.855 597.701 656.134 606.208 655.681C612.99 655.077 619.718 653.984 626.342 652.409L656.795 650.471C656.795 650.471 653.498 674.934 645.243 673.852C636.988 672.77 623.8 677.476 623.8 677.476L670.536 680.546L681.534 706.444C681.534 706.444 645.771 731.385 641.468 732.089C637.164 732.794 583.583 741.603 570.546 729.749C557.509 717.895 541.729 701.36 537.174 686.687C532.618 672.015 533.952 667.359 533.952 667.359Z" fill="#C78976"/>
<path d="M676.451 630.815L595.16 537.167L554.892 559.818C554.892 559.818 572.182 595.757 595.839 635.069C623.146 680.37 659.463 729.522 696.509 720.638C757.842 705.915 843.94 521.085 843.94 521.085C843.94 521.085 843.487 423.586 814.117 419.434C814.117 419.434 777.07 404.333 757.565 444.274C738.061 484.215 687.751 627.317 676.451 630.815Z" fill="#C78976"/>
<path d="M554.967 559.717C554.967 559.717 541.729 537.066 542.232 525.917C542.736 514.768 573.868 454.114 576.032 453.309C578.379 452.689 580.782 452.301 583.205 452.151C583.205 452.151 588.239 449.131 591.938 446.413C595.638 443.695 631.074 425.801 631.074 425.801L626.317 446.489C626.317 446.489 606.837 458.921 611.946 467.755C617.055 476.589 635.755 467.126 638.297 465.792C640.839 464.458 664.118 451.95 668.498 453.989C672.877 456.027 676.048 463.804 667.34 472.587C658.632 481.371 641.216 481.547 635.83 488.091C630.444 494.634 624.656 504.298 613.507 509.332C609.103 511.361 604.818 513.638 600.671 516.152C597.74 517.911 595.485 520.605 594.271 523.801C593.057 526.996 592.953 530.508 593.977 533.77L595.059 537.192L554.967 559.717Z" fill="#C78976"/>
<path d="M809.209 410.927C809.209 410.927 768.941 412.789 759.73 432.42C750.518 452.051 716.442 531.001 716.442 531.001L825.518 571.269C825.518 571.269 843.965 537.444 846.835 518.216C849.704 498.988 846.457 415.231 809.209 410.927Z" fill="#E51284"/>
<path d="M794.914 412.714C794.914 412.714 794.008 412.966 792.397 413.57C789.975 414.428 787.654 415.551 785.476 416.917C777.633 422.219 770.812 428.895 765.342 436.623C756.935 447.987 749.549 460.073 743.27 472.738C736.047 486.908 729.076 502.939 722.13 519.978L719.613 525.791L718.38 528.61L717.725 529.994L717.348 530.699L717.096 531.077L716.895 531.303C716.77 531.416 716.615 531.488 716.449 531.51C716.283 531.533 716.113 531.504 715.964 531.429L716.517 530.246L797.053 560.17L821.013 569.23L827.481 571.747L829.142 572.427L829.696 572.704C829.487 572.686 829.283 572.635 829.091 572.553L827.38 571.999L820.862 569.709L796.751 561.026L716.215 531.504L716.492 530.825C716.442 530.652 716.346 530.495 716.215 530.372L716.366 530.12L716.693 529.516L717.348 528.182C717.725 527.251 718.153 526.32 718.556 525.389L721.073 519.575C728.019 502.562 735.041 486.455 742.339 472.285C748.641 459.617 756.08 447.546 764.562 436.22C770.18 428.455 777.206 421.813 785.275 416.64C787.515 415.305 789.906 414.24 792.397 413.469C793.039 413.254 793.695 413.086 794.36 412.966C794.531 412.853 794.718 412.768 794.914 412.714Z" fill="#263238"/>
<path d="M703.933 717.87C703.518 718.128 703.08 718.347 702.625 718.524C701.313 719.072 699.957 719.51 698.573 719.833C693.438 720.862 688.177 721.108 682.969 720.563C675.224 719.948 667.636 718.043 660.52 714.925C652.121 710.418 644.716 704.263 638.75 696.83C635.478 692.979 632.508 689.078 629.715 685.253C626.921 681.427 624.429 677.702 621.963 674.028L608.926 655.001L600.218 642.09L597.903 638.542C597.618 638.139 597.374 637.709 597.173 637.258C597.539 637.593 597.861 637.973 598.129 638.391L600.646 641.813L609.681 654.397L622.945 673.248L630.746 684.422C633.54 688.222 636.51 692.098 639.756 695.898C644.779 702.813 651.265 708.537 658.751 712.66C666.237 716.784 674.54 719.207 683.07 719.757C688.194 720.36 693.378 720.25 698.472 719.43C702.046 718.625 703.883 717.719 703.933 717.87Z" fill="#BF654E"/>
<path d="M696.182 659.859C695.598 658.208 695.103 656.528 694.697 654.825C693.388 650.805 691.497 646.997 689.085 643.525C686.691 640.045 683.838 636.904 680.603 634.188C678.086 632.099 676.35 631.067 676.451 630.891C678.169 631.413 679.769 632.268 681.157 633.408C684.677 635.977 687.725 639.136 690.167 642.745C692.666 646.322 694.499 650.32 695.578 654.548C696.112 656.264 696.317 658.066 696.182 659.859Z" fill="#BF654E"/>
<path d="M410.757 774.673L280.188 811.191C241.934 813.506 155.458 819.219 155.458 819.219L183.143 985.325H281.094H390.925C390.925 985.325 424.851 934.99 428.349 872.75C430.321 839.127 424.292 805.515 410.757 774.673Z" fill="#263238"/>
<path d="M266.371 840.561C265.956 840.938 265.5 841.267 265.012 841.543L260.986 844.06C257.512 846.325 252.403 849.521 246.489 853.975C239.462 859.031 233.286 865.173 228.192 872.172C225.276 876.337 223.026 880.93 221.523 885.787C219.978 891.049 218.975 896.454 218.528 901.92C216.791 924.445 215.206 944.855 214.048 959.805C213.419 967.078 212.916 973.043 212.563 977.422C212.362 979.385 212.211 980.971 212.085 982.179C212.058 982.74 211.973 983.296 211.833 983.84C211.767 983.28 211.767 982.714 211.833 982.154C211.833 980.946 211.959 979.36 212.035 977.372C212.312 973.068 212.664 967.103 213.117 959.755C214.124 944.931 215.407 924.52 217.219 901.869C217.686 896.326 218.715 890.845 220.29 885.51C221.843 880.538 224.17 875.841 227.186 871.593C232.403 864.525 238.736 858.354 245.935 853.321C251.976 848.942 257.16 845.771 260.734 843.732C262.521 842.675 263.905 841.87 264.861 841.341C265.336 841.028 265.842 840.767 266.371 840.561Z" fill="#455A64"/>
<path d="M366.135 981.927C366.383 981.331 366.669 980.75 366.991 980.191L369.634 975.333C370.238 974.276 370.867 973.118 371.571 971.86C372.276 970.602 372.93 969.142 373.686 967.632C375.145 964.561 377.008 961.164 378.719 957.187C379.55 955.224 380.43 953.161 381.362 951.021C382.293 948.882 383.048 946.567 383.878 944.226C385.716 939.545 387.251 934.386 388.912 929C395.779 905.414 398.696 880.854 397.544 856.316C397.167 850.679 396.915 845.318 396.185 840.335C395.858 837.818 395.657 835.301 395.254 833.137C394.851 830.972 394.474 828.632 394.096 826.518C393.467 822.29 392.461 818.54 391.731 815.218C391.328 813.582 391.026 812.021 390.649 810.612C390.271 809.203 389.893 807.944 389.566 806.786C388.962 804.572 388.459 802.81 388.107 801.476C387.902 800.863 387.759 800.23 387.679 799.589C387.938 800.171 388.165 800.768 388.358 801.375L390.044 806.635C390.422 807.793 390.825 809.152 391.253 810.436C391.68 811.719 392.008 813.405 392.435 815.041C393.241 818.363 394.323 822.113 394.952 826.342C395.33 828.456 395.757 830.67 396.185 832.961C396.613 835.251 396.84 837.692 397.192 840.209C397.972 845.242 398.249 850.603 398.677 856.266C399.241 868.585 398.837 880.93 397.469 893.186C395.916 905.415 393.391 917.5 389.919 929.327C388.207 934.763 386.647 939.923 384.734 944.604C383.803 946.944 383.048 949.26 382.066 951.399L379.323 957.565C377.662 961.541 375.749 964.914 374.29 967.959C373.509 969.469 372.805 970.904 372.075 972.162L370.036 975.585L367.167 980.316C366.887 980.891 366.54 981.432 366.135 981.927Z" fill="#455A64"/>
<path d="M210.399 875.796C208.747 875.29 207.178 874.544 205.743 873.581C198.558 869.462 191.812 864.622 185.609 859.135C184.243 858.083 183.039 856.837 182.035 855.435C182.287 855.158 188.226 860.217 196.053 865.804C203.881 871.391 210.575 875.544 210.399 875.796Z" fill="#455A64"/>
<path d="M159.586 592.913C159.586 592.913 102.732 646.495 88.5127 682.434C74.293 718.373 60.8285 754.136 74.6958 793.171C86.2476 825.31 114.41 865.804 158.604 875.972C187.345 882.616 417.829 783.934 417.829 783.934C417.829 783.934 420.094 755.017 406.605 732.039C394.751 711.905 395.279 486.908 395.581 432.923C395.595 429.339 394.747 425.803 393.109 422.615C391.471 419.426 389.091 416.678 386.169 414.601L347.637 387.32L268.611 389.333C268.611 389.333 206.699 458.267 195.475 468.737C184.25 479.206 110.912 537.52 159.586 592.913Z" fill="#E51284"/>
<path d="M287.059 617.024C287.059 617.024 286.707 617.175 286.002 617.351C285.297 617.527 284.24 617.779 282.856 617.98C278.978 618.587 275.052 618.839 271.128 618.735C258.034 618.448 245.304 614.373 234.478 607.003C223.651 599.633 215.191 589.285 210.122 577.209C208.566 573.6 207.36 569.849 206.523 566.009C206.196 564.65 206.07 563.492 205.944 562.863C205.878 562.489 205.878 562.105 205.944 561.731C205.944 561.731 206.372 563.215 207.102 565.883C208.122 569.633 209.443 573.294 211.053 576.831C216.254 588.601 224.648 598.678 235.284 605.92C245.92 613.162 258.372 617.279 271.229 617.804C275.116 617.995 279.011 617.886 282.881 617.477C284.263 617.24 285.659 617.088 287.059 617.024Z" fill="#263238"/>
<g opacity="0.3">
<path opacity="0.3" d="M219.208 592.385C227.588 607.032 238.914 620.824 254.442 627.619C269.97 634.414 290.079 632.376 300.977 619.465C300.977 619.465 276.791 619.012 262.345 617.376C247.898 615.74 226.405 605.044 219.258 592.385" fill="black"/>
</g>
<path d="M104.972 784.991C104.972 784.991 104.091 786.3 101.776 786.753C100.252 787.106 98.6571 786.986 97.2028 786.41C95.7486 785.834 94.5044 784.829 93.6355 783.528C92.7666 782.228 92.3143 780.693 92.3388 779.129C92.3634 777.565 92.8635 776.046 93.7728 774.773C95.1067 772.81 96.6168 772.382 96.6419 772.508C96.6671 772.634 95.5345 773.389 94.5782 775.252C93.9383 776.413 93.6154 777.722 93.6419 779.047C93.6684 780.372 94.0434 781.667 94.7292 782.802C95.5268 783.858 96.5817 784.693 97.7932 785.226C99.0048 785.759 100.333 785.973 101.65 785.847C102.775 785.632 103.884 785.346 104.972 784.991Z" fill="#263238"/>
<path d="M118.865 594.121C118.865 593.165 121.381 584.054 127.774 581.185C134.167 578.316 151.658 580.279 151.658 580.279L163.965 596.638C163.965 596.638 162.53 603.609 152.363 601.797C152.363 601.797 171.817 615.992 171.087 622.409C170.902 624.259 170.34 626.05 169.436 627.674C168.531 629.297 167.303 630.717 165.827 631.847C165.827 631.847 174.938 637.107 171.943 643.575C171.216 645.346 169.882 646.8 168.18 647.676C166.478 648.552 164.52 648.794 162.656 648.357C162.656 648.357 164.091 658.575 152.992 656.335C141.893 654.095 125.584 646.419 125.584 646.419C125.344 647.214 125.278 648.052 125.39 648.875C125.502 649.698 125.79 650.487 126.234 651.189C126.678 651.891 127.268 652.489 127.963 652.943C128.659 653.396 129.444 653.695 130.266 653.818C134.235 654.707 137.925 656.556 141.012 659.204C141.012 659.204 141.692 667.384 134.368 666.226C127.044 665.068 120.173 665.597 113.58 660.966C106.986 656.335 100.669 654.624 102.078 647.98C103.487 641.335 104.595 640.152 104.595 640.152C104.595 640.152 100.643 631.294 104.444 626.864L108.244 622.409C108.244 622.409 103.387 613.752 107.841 608.769C112.296 603.785 118.11 598.249 118.11 598.249L118.865 594.121Z" fill="#C78976"/>
<path d="M165.928 631.671C163.854 630.724 161.86 629.613 159.963 628.349C156.339 626.185 151.356 623.315 145.769 620.044C140.182 616.772 135.073 614.129 131.373 612.141C129.303 611.179 127.324 610.034 125.459 608.718C127.645 609.339 129.762 610.182 131.776 611.235C135.601 613.022 140.811 615.665 146.423 618.785C152.036 621.906 156.968 625.077 160.467 627.443C162.437 628.647 164.268 630.065 165.928 631.671Z" fill="#BF654E"/>
<path d="M164.141 648.558C156.924 645.46 149.876 641.982 143.026 638.139C135.99 634.659 129.151 630.794 122.539 626.562C129.77 629.63 136.82 633.109 143.655 636.981C150.697 640.45 157.536 644.315 164.141 648.558Z" fill="#BF654E"/>
<path d="M153.47 602.93C149.495 601.51 145.674 599.689 142.069 597.494C138.259 595.672 134.642 593.471 131.272 590.925C135.257 592.331 139.086 594.144 142.698 596.336C146.509 598.153 150.119 600.363 153.47 602.93Z" fill="#BF654E"/>
<path d="M375.321 141.987C377.184 134.236 376.077 125.125 369.961 119.789C364.6 115.108 356.521 114.404 349.474 116.039C344.563 117.103 339.976 119.322 336.094 122.513C332.211 125.704 329.146 129.774 327.151 134.387C325.337 139.011 324.978 144.079 326.12 148.913C327.262 153.747 329.852 158.118 333.543 161.442L353.174 166.072C358.397 165.181 363.233 162.746 367.059 159.081C370.885 155.416 373.526 150.69 374.642 145.511C374.843 144.051 375.145 142.792 375.321 141.987Z" fill="#263238"/>
<path d="M363.442 164.386C361.936 163.12 360.105 162.3 358.157 162.02C356.209 161.739 354.221 162.01 352.419 162.801C352.935 161.129 352.98 159.348 352.549 157.652C352.119 155.957 351.229 154.413 349.978 153.19C348.727 151.968 347.162 151.114 345.457 150.723C343.753 150.331 341.973 150.417 340.314 150.972C338.602 151.551 336.84 152.608 335.154 152.029C332.637 151.123 332.637 147.549 331.631 145.007C331.207 143.934 330.528 142.981 329.653 142.229C328.777 141.478 327.732 140.951 326.607 140.695C325.482 140.438 324.312 140.46 323.197 140.758C322.083 141.055 321.058 141.62 320.211 142.404C319.364 143.187 318.721 144.165 318.337 145.253C317.953 146.341 317.84 147.506 318.008 148.648C318.176 149.789 318.62 150.872 319.301 151.803C319.982 152.735 320.879 153.486 321.916 153.992C332.763 156.509 343.787 163.883 352.595 170.728C354.31 172.257 356.255 173.505 358.359 174.428C359.422 174.879 360.59 175.026 361.731 174.853C362.873 174.679 363.945 174.193 364.827 173.446C367.268 171.106 366.06 166.626 363.442 164.386Z" fill="#FF1493"/>
<path d="M230.382 395.625C230.382 395.399 232.899 394.971 236.296 393.108C240.9 390.889 244.77 387.394 247.447 383.04C250.124 378.686 251.494 373.655 251.397 368.545C251.397 364.619 250.642 362.253 250.843 362.178C251.044 362.102 251.195 362.731 251.523 363.813C251.956 365.349 252.226 366.927 252.328 368.52C252.674 373.853 251.356 379.163 248.557 383.715C245.758 388.268 241.614 391.84 236.699 393.939C235.235 394.592 233.697 395.065 232.118 395.348C231.564 395.558 230.974 395.652 230.382 395.625Z" fill="#263238"/>
<path d="M281.069 156.962C273.127 152.917 264.655 150.011 255.902 148.329C247.546 146.542 238.285 147.524 231.54 152.91C222.781 160.007 220.869 172.54 214.224 181.651C209.921 187.565 203.755 191.718 198.293 196.626C192.832 201.533 187.698 207.473 186.741 214.721C185.936 220.661 188.025 226.625 187.622 232.59C186.616 247.263 170.961 259.091 173.428 273.613C175.265 284.284 186.364 291.23 189.208 301.7C190.919 307.967 189.384 314.661 190.24 321.104C191.713 329.444 196.19 336.955 202.824 342.22C209.397 347.426 216.72 351.609 224.543 354.627C233.402 358.436 242.446 361.792 251.674 364.694C257.135 366.406 263.955 367.639 267.781 363.386C270.474 360.416 270.449 355.961 270.298 351.96C267.026 286.675 264.333 220.183 281.069 156.962Z" fill="#263238"/>
<path d="M347.662 395.449L348.317 212.557C348.208 208.806 346.694 205.234 344.074 202.548C341.453 199.863 337.919 198.261 334.173 198.06L280.465 176.416L266.422 177.977C234.786 177.977 212.815 212.708 212.488 238.379C212.11 266.818 212.79 301.574 217.219 322.589C226.103 364.795 258.997 368.595 258.997 368.595C258.997 368.595 258.62 380.122 258.267 394.266L234.61 470.096L347.662 395.449Z" fill="#C78976"/>
<path d="M229.149 262.514C229.214 263.936 229.826 265.278 230.858 266.259C231.891 267.239 233.262 267.782 234.686 267.774C235.384 267.794 236.078 267.675 236.729 267.422C237.38 267.17 237.974 266.79 238.476 266.304C238.978 265.819 239.378 265.238 239.652 264.596C239.926 263.953 240.068 263.263 240.071 262.565C240.013 261.14 239.402 259.795 238.368 258.813C237.335 257.831 235.96 257.29 234.535 257.305C233.837 257.288 233.144 257.41 232.495 257.664C231.845 257.917 231.253 258.298 230.751 258.782C230.25 259.267 229.85 259.847 229.575 260.487C229.3 261.128 229.155 261.817 229.149 262.514Z" fill="#263238"/>
<path d="M220.39 251.793C220.969 252.749 226.053 249.805 232.37 250.837C238.687 251.868 242.764 256.122 243.595 255.367C243.997 255.04 243.595 253.378 241.758 251.415C239.445 248.92 236.357 247.28 232.995 246.759C229.633 246.238 226.194 246.868 223.234 248.546C221.02 249.905 220.088 251.34 220.39 251.793Z" fill="#263238"/>
<path d="M259.576 298.831C256.426 298.024 253.189 297.601 249.937 297.573C248.427 297.573 246.992 297.271 246.69 296.264C246.519 294.767 246.79 293.254 247.471 291.91C248.712 288.185 250.004 284.301 251.346 280.257C256.682 263.697 260.482 250.056 259.803 249.88C259.123 249.704 254.266 262.942 248.905 279.502C247.622 283.579 246.388 287.48 245.231 291.205C244.382 293.059 244.212 295.153 244.753 297.12C244.992 297.632 245.341 298.085 245.776 298.447C246.212 298.808 246.722 299.068 247.269 299.208C248.098 299.372 248.942 299.448 249.786 299.435C253.062 299.636 256.35 299.433 259.576 298.831Z" fill="#263238"/>
<path d="M258.997 368.545C279.05 367.84 298.513 361.585 315.222 350.475C315.222 350.475 301.53 380.676 258.721 378.889L258.997 368.545Z" fill="#BF654E"/>
<path d="M262.773 312.849C263.82 311.387 265.221 310.216 266.846 309.446C268.471 308.675 270.265 308.331 272.059 308.445C273.359 308.503 274.634 308.82 275.81 309.377C276.985 309.935 278.038 310.722 278.905 311.692C279.738 312.63 280.263 313.803 280.407 315.05C280.551 316.297 280.308 317.559 279.71 318.663C278.826 319.758 277.635 320.565 276.291 320.982C274.947 321.398 273.509 321.406 272.16 321.004C269.336 320.166 266.709 318.771 264.434 316.901C263.748 316.462 263.15 315.899 262.672 315.24C262.458 314.915 262.343 314.535 262.343 314.145C262.343 313.756 262.458 313.375 262.672 313.051" fill="#FF1493"/>
<path d="M277.068 301.977C276.086 301.977 276.413 308.344 271.178 313.151C265.944 317.958 259.123 317.581 259.123 318.462C259.123 318.864 260.684 319.644 263.578 319.569C267.312 319.431 270.877 317.978 273.645 315.467C276.311 313.061 277.936 309.712 278.175 306.13C278.276 303.512 277.495 301.977 277.068 301.977Z" fill="#263238"/>
<path d="M220.919 233.546C222.152 234.805 226.607 233.194 232.093 232.867C237.58 232.54 242.16 233.244 243.217 231.81C243.645 231.105 242.865 229.796 240.701 228.639C237.851 227.215 234.661 226.614 231.489 226.902C228.328 227.087 225.287 228.179 222.731 230.048C220.944 231.508 220.365 232.917 220.919 233.546Z" fill="#263238"/>
<path d="M297.227 261.709C297.254 263.132 296.725 264.51 295.752 265.549C294.779 266.588 293.439 267.206 292.017 267.271C291.325 267.336 290.626 267.262 289.962 267.054C289.299 266.845 288.684 266.505 288.154 266.055C287.624 265.604 287.189 265.052 286.876 264.431C286.562 263.81 286.376 263.133 286.329 262.439C286.288 261.719 286.391 260.999 286.629 260.319C286.868 259.639 287.24 259.013 287.721 258.478C288.203 257.942 288.787 257.507 289.437 257.198C290.088 256.888 290.794 256.711 291.514 256.675C292.224 256.61 292.939 256.69 293.617 256.911C294.295 257.132 294.921 257.489 295.456 257.96C295.991 258.432 296.424 259.007 296.728 259.652C297.033 260.296 297.202 260.996 297.227 261.709Z" fill="#263238"/>
<path d="M304.551 229.822C303.242 231.181 298.007 229.822 291.74 229.822C285.474 229.822 280.188 230.879 278.955 229.494C278.427 228.815 279.232 227.456 281.472 226.172C284.681 224.548 288.246 223.752 291.841 223.857C295.413 223.818 298.937 224.684 302.084 226.374C304.374 227.808 305.129 229.167 304.551 229.822Z" fill="#263238"/>
<path d="M283.737 174.201C305.004 203.144 327.654 235.862 349.651 264.2C353.451 250.056 357.025 228.689 354.382 214.268C351.986 199.644 344.279 186.417 332.738 177.121C321.06 168.237 300.272 166.4 286.682 171.861" fill="#263238"/>
<path d="M339.835 284.36C339.684 281.189 342.981 273.538 346.077 272.908C354.382 271.172 369.483 271.096 370.691 292.313C372.326 321.306 342.855 316.977 342.78 316.146C342.704 315.316 340.364 295.408 339.835 284.36Z" fill="#C78976"/>
<path d="M351.01 304.77C351.136 304.77 351.538 305.098 352.419 305.425C353.646 305.875 355 305.829 356.194 305.299C359.189 303.99 361.505 298.982 361.228 293.747C361.169 291.259 360.549 288.816 359.416 286.6C359.088 285.709 358.552 284.91 357.851 284.271C357.15 283.631 356.306 283.17 355.389 282.925C354.8 282.795 354.183 282.881 353.652 283.167C353.12 283.454 352.71 283.922 352.495 284.485C352.142 285.316 352.495 285.895 352.218 285.945C351.941 285.996 351.563 285.492 351.74 284.284C351.853 283.554 352.218 282.886 352.771 282.397C353.147 282.074 353.583 281.829 354.054 281.678C354.525 281.527 355.022 281.472 355.515 281.516C356.717 281.682 357.857 282.154 358.826 282.885C359.795 283.616 360.561 284.583 361.052 285.693C362.423 288.144 363.183 290.89 363.266 293.697C363.417 299.536 360.75 305.173 356.597 306.633C355.833 306.905 355.018 307.001 354.211 306.914C353.405 306.827 352.629 306.558 351.941 306.129C351.11 305.475 350.909 304.821 351.01 304.77Z" fill="#BF654E"/>
<path d="M274.475 166.072C256.632 167.457 235.768 172.968 224.644 186.987C213.52 201.005 207.152 218.32 203.377 235.837C200.186 252.577 198.101 269.509 197.136 286.524C196.239 294.262 196.146 302.072 196.859 309.829C197.597 317.632 200.746 325.012 205.869 330.945C202.673 324.074 209.493 312.472 208.839 302.027L213.243 284.636C212.513 270.82 217.848 265.358 218.276 258.789C218.604 253.756 216.338 249.15 214.677 244.494C213.016 239.838 211.909 234.427 214.35 230.099C216.791 225.77 222.781 223.656 226.028 219.478C229.728 214.721 229.426 207.876 232.546 202.716C236.925 195.544 246.288 193.731 253.687 189.73C263.276 184.545 275.331 179.663 276.942 168.79L274.475 166.072Z" fill="#263238"/>
<path d="M302.487 251.642C301.883 252.598 296.749 249.528 290.256 250.484C283.762 251.441 279.534 255.669 278.704 254.888C278.301 254.561 278.704 252.875 280.642 250.912C283.068 248.402 286.268 246.78 289.727 246.306C293.166 245.817 296.668 246.528 299.643 248.32C301.883 249.628 302.839 251.088 302.487 251.642Z" fill="#263238"/>
<path d="M283.309 300.794C282.957 300.794 282.328 299.737 281.044 298.932C279.76 298.126 278.527 298 278.527 297.648C278.527 297.296 280.138 296.717 281.875 297.849C283.611 298.982 283.661 300.769 283.309 300.794Z" fill="#BF654E"/>
<path d="M394.751 292.942C394.575 284.687 387.93 277.841 386.521 269.612C385.338 262.716 386.999 255.719 387.855 248.773C389.654 231.665 386.499 214.4 378.767 199.034C371.034 183.668 359.05 170.846 344.24 162.096C332.257 155.789 319.447 151.197 306.186 148.455C301.117 146.936 295.805 146.389 290.532 146.844C287.895 147.115 285.374 148.067 283.216 149.607C281.058 151.147 279.338 153.222 278.225 155.628C272.034 164.21 269.543 177.448 274.475 186.81C281.699 200.502 301.782 202.716 309.962 215.879C318.72 229.973 309.785 249.528 316.933 264.528C321.463 274.091 328.133 276.986 331.731 286.927C333.569 291.96 330.851 303.94 333.619 308.546C337.57 315.114 341.169 322.035 347.914 325.584L347.788 356.716C365.758 350.475 395.632 330.945 394.751 292.942Z" fill="#263238"/>
<path d="M383.803 252.045C383.334 252.161 382.851 252.211 382.368 252.196C380.987 252.195 379.617 251.957 378.316 251.491C373.591 249.487 369.687 245.937 367.243 241.424C365.532 238.405 364.002 235.287 362.662 232.087C361.199 228.462 359.298 225.03 357 221.869C354.348 218.506 350.809 215.951 346.782 214.495C342.401 212.949 337.884 211.82 333.292 211.122C316.872 208.365 301.496 201.246 288.771 190.51C284.94 187.279 281.411 183.707 278.225 179.839C277.043 178.505 276.288 177.322 275.709 176.618C275.405 176.245 275.143 175.84 274.928 175.41C274.928 175.41 276.237 176.869 278.603 179.487C281.905 183.199 285.499 186.641 289.349 189.78C295.054 194.435 301.278 198.413 307.898 201.634C315.998 205.588 324.628 208.352 333.518 209.839C338.197 210.556 342.797 211.71 347.26 213.287C351.486 214.858 355.19 217.577 357.956 221.139C360.281 224.4 362.2 227.933 363.669 231.659C364.953 234.83 366.406 237.93 368.023 240.946C370.313 245.36 373.992 248.897 378.493 251.013C380.199 251.628 381.99 251.976 383.803 252.045Z" fill="#455A64"/>
<path d="M383.551 213.136C382.905 211.666 382.139 210.252 381.261 208.908C378.493 205.5 374.74 203.03 370.515 201.835C367.642 200.899 364.668 200.308 361.656 200.074C358.384 199.822 354.886 199.772 351.161 199.596C347.232 199.479 343.329 198.905 339.533 197.884C335.434 196.639 331.684 194.45 328.585 191.492C325.596 188.559 322.756 185.476 320.079 182.255C317.603 179.321 314.809 176.671 311.748 174.353C302.858 167.876 292.001 164.674 281.019 165.292C277.898 165.468 276.212 165.846 276.187 165.695C276.57 165.525 276.978 165.415 277.395 165.368C278.581 165.1 279.783 164.906 280.994 164.789C285.44 164.335 289.93 164.564 294.307 165.468C300.856 166.76 307.047 169.456 312.453 173.371C318.745 177.7 323.325 184.772 329.466 190.51C332.416 193.337 335.983 195.439 339.886 196.651C343.59 197.663 347.399 198.246 351.236 198.387C354.911 198.589 358.434 198.69 361.756 198.992C364.845 199.275 367.888 199.934 370.817 200.955C375.145 202.263 378.95 204.906 381.689 208.505C382.647 209.89 383.283 211.473 383.551 213.136Z" fill="white"/>
<path d="M382.796 373.528C382.159 373.86 381.451 374.032 380.733 374.031C378.77 374.161 376.806 373.797 375.02 372.974C372.384 371.765 370.008 370.055 368.023 367.941C365.62 365.393 363.548 362.552 361.857 359.485C358.768 353.913 356.962 347.722 356.572 341.364C356.421 339.446 356.421 337.519 356.572 335.601C356.59 334.893 356.734 334.194 357 333.537C357.226 333.537 356.874 336.532 357.402 341.288C358.04 347.468 359.905 353.457 362.889 358.906C365.647 364.433 369.959 369.034 375.296 372.144C377.634 373.248 380.219 373.725 382.796 373.528Z" fill="#263238"/>
<path d="M395.632 394.946C394.77 395.4 393.846 395.723 392.888 395.902C390.278 396.53 387.577 396.692 384.91 396.38C376.054 395.162 368.029 390.517 362.562 383.444C357.343 376.361 353.774 368.201 352.117 359.56C351.387 356.288 350.959 353.621 350.733 351.758C350.539 350.806 350.463 349.834 350.506 348.864C350.733 348.864 351.387 352.916 353.023 359.334C354.903 367.747 358.502 375.682 363.593 382.639C368.882 389.446 376.535 394.018 385.036 395.449C388.572 395.841 392.148 395.671 395.632 394.946Z" fill="#263238"/>
<path d="M413.903 362.077C413.583 362.283 413.236 362.444 412.871 362.555C412.192 362.807 411.16 363.209 409.801 363.662C406.015 365.02 402.042 365.785 398.023 365.927C395.19 365.955 392.382 365.407 389.768 364.317C386.72 363.007 384.208 360.699 382.645 357.773C381.802 356.173 381.345 354.397 381.311 352.589C381.311 350.682 381.852 348.814 382.872 347.203C383.877 345.48 385.414 344.129 387.251 343.352C388.2 342.923 389.229 342.701 390.271 342.701C391.313 342.701 392.342 342.923 393.291 343.352C395.196 344.202 396.72 345.726 397.57 347.631C397.99 348.566 398.181 349.588 398.129 350.612C398.076 351.636 397.781 352.632 397.268 353.52C396.269 355.165 394.782 356.458 393.014 357.22C391.433 357.98 389.728 358.449 387.981 358.604C381.881 359.161 375.808 357.279 371.093 353.369C367.991 350.743 365.646 347.338 364.298 343.503C363.937 342.472 363.668 341.411 363.493 340.332C363.421 339.95 363.421 339.557 363.493 339.174C363.619 339.174 363.845 340.71 364.877 343.327C366.361 346.972 368.742 350.184 371.798 352.664C376.373 356.284 382.177 357.981 387.981 357.396C389.625 357.331 391.232 356.892 392.68 356.111C394.128 355.33 395.379 354.229 396.336 352.891C396.708 352.129 396.916 351.298 396.945 350.45C396.975 349.603 396.826 348.759 396.508 347.974C396.19 347.188 395.71 346.478 395.099 345.89C394.489 345.302 393.761 344.849 392.964 344.56C391.346 343.94 389.558 343.933 387.935 344.54C386.313 345.147 384.968 346.327 384.155 347.857C383.294 349.259 382.819 350.863 382.779 352.508C382.74 354.152 383.136 355.778 383.929 357.22C385.346 359.922 387.634 362.068 390.422 363.31C392.887 364.373 395.539 364.938 398.224 364.971C402.176 364.914 406.099 364.296 409.876 363.134C411.192 362.686 412.538 362.333 413.903 362.077Z" fill="#263238"/>
<path d="M375.447 123.288C375.447 123.514 372.15 122.533 366.815 122.508C359.862 122.454 353.025 124.29 347.033 127.818C341.108 131.447 336.334 136.684 333.267 142.918C332.103 145.57 331.087 148.284 330.221 151.047C330.18 150.251 330.265 149.452 330.473 148.682C330.905 146.57 331.563 144.511 332.436 142.541C335.347 135.958 340.204 130.425 346.354 126.685C352.548 123.051 359.667 121.302 366.84 121.652C368.99 121.731 371.125 122.043 373.207 122.583C373.989 122.688 374.747 122.926 375.447 123.288Z" fill="#455A64"/>
<path d="M368.275 159.604C368.073 159.604 368.275 157.314 368.098 153.715C367.726 149.04 366.353 144.5 364.072 140.402C361.737 136.326 358.583 132.779 354.81 129.982C351.916 127.818 349.777 126.861 349.953 126.66C351.899 127.128 353.731 127.984 355.339 129.177C359.416 131.85 362.798 135.456 365.204 139.697C367.606 143.95 368.921 148.731 369.03 153.615C369.212 155.642 368.954 157.685 368.275 159.604Z" fill="#455A64"/>
<path d="M313.032 277.061C311.452 276.669 309.897 276.182 308.376 275.601C304.634 274.573 300.742 274.207 296.874 274.519C293.013 274.871 289.246 275.911 285.75 277.59C284.346 278.4 282.901 279.14 281.422 279.804C282.466 278.552 283.76 277.532 285.222 276.809C288.74 274.823 292.642 273.614 296.666 273.262C300.69 272.911 304.743 273.425 308.552 274.771C310.193 275.202 311.721 275.983 313.032 277.061Z" fill="#BF654E"/>
<path d="M312.906 509.659C311.446 494.558 311.371 527.503 312.906 509.659V509.659Z" fill="#C78976"/>
<path d="M410.707 503.09C410.002 486.102 406.479 449.911 388.056 429.375C365.934 404.811 339.861 407.253 323.2 435.818C306.212 464.936 314.139 495.188 312.906 509.659L333.518 680.068C333.518 680.068 245.13 839.278 219.761 851.937L260.029 871.291C289.45 859.059 389.692 749.782 417.98 695.269C429.708 672.77 411.412 520.104 410.707 503.09Z" fill="#C78976"/>
<path d="M311.673 562.788L420.774 540.816C420.774 540.816 411.789 472.613 399.784 439.467C390.422 413.67 361.379 403.981 361.379 403.981L313.409 432.848C313.409 432.848 305.205 471.656 305.859 507.167C306.514 542.679 311.673 562.788 311.673 562.788Z" fill="#E51284"/>
<path d="M371.899 415.482C371.29 415.646 370.666 415.747 370.036 415.784L364.701 416.388C358.18 417.072 351.719 418.241 345.372 419.887C335.918 422.175 327.395 427.315 320.96 434.61C313.913 442.965 309.861 454.744 308.502 467.327C307.143 479.911 308.502 492.042 308.829 503.04L310.238 532.285C310.591 540.489 310.867 547.184 311.069 551.991C311.069 554.239 311.119 556.026 311.22 557.352C311.28 557.979 311.28 558.611 311.22 559.239C311.08 558.628 311.004 558.004 310.993 557.377C310.993 556.018 310.742 554.256 310.591 552.016C310.289 547.234 309.861 540.54 309.332 532.31C308.804 524.08 308.275 514.063 307.646 503.065C307.017 492.067 305.658 479.961 307.218 467.176C308.779 454.391 312.755 442.412 320.054 433.855C323.513 429.84 327.675 426.488 332.335 423.964C336.385 421.771 340.687 420.08 345.146 418.93C351.554 417.331 358.088 416.287 364.676 415.809C367.016 415.608 368.803 415.507 370.036 415.432C370.657 415.395 371.281 415.412 371.899 415.482Z" fill="#263238"/>
<path d="M137.69 865.855C137.69 865.855 140.383 849.697 150.098 850.452C159.812 851.207 160.97 851.912 167.161 848.615C173.352 845.318 177.228 836.031 193.562 835.754C209.896 835.477 226.154 842.726 235.466 839.076L269.618 865.855C269.618 865.855 238.184 892.985 228.092 897.037C217.999 901.089 193.939 902.071 190.064 900.712C186.188 899.352 159.863 892.985 157.069 891.525C154.275 890.066 131.902 879.797 131.474 876.425C131.046 873.052 135.5 870.183 138.697 870.938C141.893 871.693 158.579 875.972 166.381 871.895C169.56 869.986 172.935 868.425 176.448 867.239L137.69 865.855Z" fill="#C78976"/>
<path d="M966.43 984.545C966.43 984.922 758.353 985.199 501.748 985.199C245.144 985.199 37.0128 984.922 37.0128 984.545C37.0128 984.167 245.037 984.016 501.722 984.016C758.406 984.016 966.43 984.192 966.43 984.545Z" fill="#263238"/>
</svg>
