<svg width="164" height="160" viewBox="0 0 164 160" fill="none" xmlns="http://www.w3.org/2000/svg">
<path d="M163.391 150.512L146.68 121.092C157.029 104.309 160.726 84.2613 157.044 64.8907C153.362 45.5201 142.567 28.2275 126.782 16.4124C110.996 4.59733 91.3622 -0.88562 71.7391 1.04147C52.1161 2.96857 33.9236 12.1663 20.7382 26.8265C7.55282 41.4867 0.32825 60.5489 0.484728 80.2657C0.641207 99.9825 8.16742 118.928 21.5839 133.377C35.0003 147.826 53.3364 156.734 72.9875 158.349C92.6387 159.965 112.183 154.171 127.779 142.106L163.391 150.512Z" fill="#FAFAFA"/>
<path d="M163.391 150.513L127.679 142.334C127.628 142.317 127.584 142.282 127.557 142.236C127.529 142.19 127.519 142.135 127.528 142.082L127.855 142.384C116.902 150.94 103.875 156.437 90.1035 158.315C85.9375 158.914 81.7248 159.125 77.5197 158.944C75.3805 158.944 73.191 158.768 70.9763 158.592L64.332 157.585C44.4948 153.705 26.8871 142.399 15.1044 125.975C8.5538 116.894 4.01498 106.521 1.79072 95.5476C-0.487961 83.9358 -0.169978 71.9637 2.7219 60.4892C5.73985 48.4413 11.5996 37.2915 19.8107 27.9728L23.0322 24.4494C24.0892 23.2414 25.3476 22.2598 26.4801 21.1776C27.6127 20.0954 28.7703 18.9629 30.0539 18.0568L33.8542 15.2381C35.0895 14.3024 36.3934 13.4611 37.7551 12.7214L41.7567 10.2046L45.9346 8.19119C47.3035 7.4751 48.7156 6.8447 50.1627 6.30363C61.3564 1.89119 73.3941 0.0339503 85.3972 0.867464C96.757 1.62892 107.813 4.8674 117.788 10.3556C135.688 20.3336 149.075 36.8015 155.187 56.3618C157.622 64.6786 158.776 73.3179 158.61 81.9823C158.395 89.5112 157.098 96.97 154.759 104.13C152.793 110.064 150.14 115.748 146.856 121.067V121.093C157.427 139.993 162.611 149.28 163.391 150.639L146.479 121.093C146.461 121.057 146.452 121.019 146.452 120.979C146.452 120.94 146.461 120.901 146.479 120.866C149.717 115.561 152.318 109.893 154.23 103.979C156.53 96.8732 157.793 89.4734 157.98 82.0074C158.119 73.4155 156.948 64.8526 154.507 56.6135C148.423 37.2481 135.134 20.959 117.385 11.1106C107.484 5.68029 96.5143 2.48463 85.2462 1.74832C73.3458 0.910093 61.4089 2.7505 50.3137 7.13416C48.8878 7.67745 47.4931 8.29919 46.1359 8.99655L42.0084 11.01L38.0571 13.4009C36.7085 14.1491 35.4135 14.9901 34.1814 15.9176L30.4565 18.7112C28.0696 20.7369 25.7528 22.8439 23.5102 25.0283L20.314 28.5265C12.2994 37.7753 6.60517 48.8014 3.70347 60.6906C0.828459 72.03 0.501829 83.8655 2.74709 95.3462C4.92733 106.233 9.40626 116.53 15.8845 125.547C27.5514 141.793 44.9461 153.008 64.5586 156.931L71.1525 157.963C73.342 158.139 75.5063 158.189 77.6456 158.315C81.7737 158.494 85.9096 158.3 90.0029 157.736C97.4101 156.756 104.639 154.722 111.471 151.696C117.219 149.144 122.643 145.917 127.628 142.082C127.649 142.06 127.675 142.043 127.703 142.031C127.731 142.019 127.761 142.012 127.792 142.012C127.823 142.012 127.853 142.019 127.881 142.031C127.909 142.043 127.934 142.06 127.955 142.082C127.98 142.124 127.993 142.172 127.993 142.221C127.993 142.269 127.98 142.317 127.955 142.359L127.804 142.007L163.391 150.513Z" fill="#263238"/>
<path d="M112.93 75.7901C112.596 71.6464 110.987 67.7078 108.325 64.5151C105.864 61.2691 102.436 58.8894 98.5346 57.7199C95.223 56.832 91.7123 57.0469 88.5337 58.3319C85.355 59.617 82.6815 61.9023 80.9174 64.8422C79.8683 62.7701 78.3725 60.9564 76.5381 59.5319C74.8207 58.2322 72.8599 57.2907 70.7717 56.7633C68.6836 56.2359 66.5109 56.1332 64.3823 56.4615C60.3733 57.2076 56.7011 59.1977 53.8874 62.1493C50.9126 65.0514 48.8934 68.7914 48.0989 72.8707C47.1892 78.0878 47.9742 83.4591 50.3388 88.1977C53.132 93.0207 57.0416 97.1031 61.7396 100.102C69.2898 105.261 79.3568 111.754 79.3568 111.754C79.3568 111.754 88.4424 105.689 96.5715 101.385C101.548 98.9025 105.861 95.2705 109.155 90.79C111.993 86.3256 113.316 81.0658 112.93 75.7901Z" fill="#FF1493"/>
</svg>
